<svg width="300" height="300" viewBox="0 0 300 300" fill="none" xmlns="http://www.w3.org/2000/svg">
<path d="M107.958 187.76C107.958 187.76 86.4803 223.043 89.6923 268.185" stroke="#DB6724" stroke-width="3"/>
<path d="M109.396 227.333C105.034 213 107.383 187.667 107.383 187.667C107.383 187.667 91.0487 205.043 76.5101 209C67.5081 207.927 70.8884 202.993 61.7328 197.291C52.4544 199.54 36.017 197.99 36.017 197.99C36.017 197.99 40.7701 190.735 42.9013 187.667C42.0335 181.909 27.4916 177.838 24.8322 152.333C23.9684 144.049 6.54267 133.399 0 134.333C0.520165 128.891 9.59888 136.19 31.2081 129C57.7284 120.176 52.349 117.333 52.349 117.333C52.349 117.333 38.3055 105.53 42.9013 94C41.8472 84.8159 31.2081 74.6667 31.2081 74.6667C31.2081 74.6667 45.2209 78.78 52.349 70C54.0803 50.8098 58.2467 65.9837 64.4295 20C73.1424 62.5909 84.8975 52.6667 84.8975 52.6667C98.0635 54.684 86.8806 67.7884 107.383 87.6667C120.036 98.2713 125.503 81.5445 133.893 74.6667C139.446 62.1452 144.966 41.1779 144.966 41.1779C144.966 41.1779 146.993 54.4954 156.422 53.1486C162.965 52.2141 170.231 41.7731 182.537 41.1779C194.843 40.5827 209.396 20 209.396 20C209.396 20 199.664 42 205.705 52.6667C211.745 63.3333 206.711 75 209.396 81C213.265 89.647 233.557 84.3333 233.557 84.3333C233.557 84.3333 217.114 97.3333 209.396 108.667C207.997 119.382 204.027 129.333 219.799 134.333C247.651 141 250.336 130 259.06 140C259.06 140 259.06 149.667 300 134.333C264.094 164 274.497 165.333 259.06 177C255.369 187.667 267.785 194.333 267.785 194.333C267.785 194.333 254.027 194.333 245.638 198.333C238.255 208.333 225.839 203.667 225.839 203.667C225.839 203.667 202.807 214.667 209.396 241.667C214.765 263.667 221.477 276.667 217.114 280C214.43 274 206.514 250.319 198.993 254C175.839 265.333 157.383 247.667 152.013 250C150.532 253.425 150 259.333 150 259.333C150 259.333 139.933 246.333 136.913 237.333C127.181 232.667 115.101 234.333 109.396 227.333Z" fill="#DB6724"/>
</svg>
