<svg width="300" height="300" viewBox="0 0 300 300" fill="none" xmlns="http://www.w3.org/2000/svg">
<g clip-path="url(#clip0_2_27)">
<path d="M96.4869 300C92.7559 277.228 105.377 245.98 105.377 245.98" stroke="#EBCF3F" stroke-width="3"/>
<path d="M72.0214 216.435C89.2777 239.208 94.8744 243.526 110.944 249.541C122.857 251.505 115.852 251.371 144.763 249.038C153.186 246.675 167.145 244.101 172.178 239.508C167.745 236.64 163.625 238.76 167.567 234.369C176.297 232.35 188.975 230.584 207.606 209.192C200.982 209.411 199.405 213.182 198.176 211.812C199.633 208.756 211.816 205.59 217.819 195.003C212.467 195.949 207.515 197.913 207.553 195.31C207.605 191.716 226.588 187.5 231.623 171.686C221.096 175.85 218.623 175.324 218.637 173.109C231.927 167.187 237.315 155.916 240.378 144.817C236.52 148.118 227.266 150.924 228.579 148.252C230.845 143.64 239.493 133.463 239.923 122.195C237.468 124.296 229.65 130.812 231.02 126.785C232.318 122.97 241.754 104.884 236.691 99.2418C233.198 104.333 229.314 108.341 230.026 104.945C230.881 100.867 237.136 90.0629 235.553 84.1515C231.343 87.7533 227.017 91.3994 227 88.4418C226.984 85.4397 235.943 78.3671 232.91 69.4574C229.753 72.1588 226.06 74.9183 225.717 73.1899C227.294 69.4184 231.68 68.0872 228.6 54.9788C225.443 57.6802 223.141 62.0614 222.286 60.3815C220.691 57.2469 226.141 52.2383 221.747 43.8866C220.748 42.6515 218.229 48.9438 217.129 47.8385C214.985 36.3505 211.17 39.0095 211.735 30.6543C212.299 22.2991 220.265 1.71229 217.129 0.0973841C213.993 -1.51752 202.143 17.4044 196.08 23.3252C190.017 29.2461 189.551 24.6916 179.29 30.6882C177.714 30.6087 180.9 24.6114 179.29 24.6916C169.962 26.9688 169.697 34.2726 166.231 35.1669C164.374 35.6462 166.231 31.0679 166.231 26.9688C154.105 33.3451 155.971 37.4441 154.105 41.0878C152.548 41.9749 152.24 37.4442 152.24 33.3451C143.378 36.9887 143.836 48.2303 141.513 50.1967C139.224 52.134 139.181 46.5531 139.181 41.0878C133.584 43.8204 129.386 55.5347 126.808 58.8502C124.662 61.6117 125.189 56.1175 126.808 50.1967C119.126 50.1967 111.415 69.0459 109.332 72.5137C107.133 76.1739 107 66.1374 107 62.9493C98.6052 70.6919 96.4667 83.7502 94.4077 88.4544C93.215 91.1792 89.2774 82.5335 89.2774 77.5236C82.748 87.088 77.6177 98.4743 81.8152 112.138C80.1185 113.608 78.0841 112.138 74.3531 101.662C65.4918 115.781 74.7551 132.503 72.0213 134.91C70.0417 136.653 68.2903 131.722 65.4917 127.167C61.2944 138.554 66.8852 149.588 65.4917 152.673C63.6262 152.673 65.4917 149.029 61.2944 144.019C57.0967 171.801 64.0925 182.277 68.2903 190.019C67.5069 195.809 66.4245 191.386 61.2944 190.019C61.0738 196.743 68.2903 208.693 72.0214 216.435Z" fill="#EBCF3F"/>
</g>
<defs>
<clipPath id="clip0_2_27">
<rect width="300" height="300" fill="white"/>
</clipPath>
</defs>
</svg>
