<svg width="300" height="300" viewBox="0 0 300 300" fill="none" xmlns="http://www.w3.org/2000/svg">
<g clip-path="url(#clip0_2_26)">
<path d="M155.339 248.418C155.339 248.418 155.339 271.114 150.799 300" stroke="#EA3811" stroke-width="3"/>
<path d="M223.032 233.15C199.923 251.307 184.242 257.497 156.182 249.243C129.301 260.774 114.848 260.81 89.7444 245.53C75.2766 232.3 69.1819 217.821 79.0154 216.644C70.8553 210.971 64.1692 204.854 68.2864 190.646C65.1785 183.886 53.6105 177.054 60.4459 171.664C50.6323 159.125 51.3607 148.968 57.7545 139.89C63.5474 137.268 69.4041 144.129 75.7229 144.842C81.5744 141.648 90.432 147.682 100.886 155.158C116.549 128.748 91.1282 100.959 114.073 98.2118C117.832 74.0723 112.113 56.4682 128.586 48.2617C127.163 36.3796 132.641 36.6783 135.136 28.8858C138.486 18.426 139.431 0 139.431 0C139.431 0 142.946 7.75679 147.516 17.7442C150.92 25.1846 156.182 36.2947 156.182 48.2617C173.513 54.4515 165.655 63.5488 165.655 80.055C189.589 70.564 189.589 114.718 189.589 139.89C199.08 131.224 219.318 128.748 225.508 131.224C231.697 129.765 235.538 126.833 241.601 128.748C249.029 137.001 249.854 150.206 241.601 163.824C249.029 168.363 238.106 174.898 235.824 181.981C241.601 195.598 235.824 198.074 228.396 204.677C238.3 204.677 235.824 218.294 223.032 233.15Z" fill="#EA3811"/>
</g>
<defs>
<clipPath id="clip0_2_26">
<rect width="300" height="300" fill="white"/>
</clipPath>
</defs>
</svg>
