<svg width="1068" height="268" viewBox="0 0 1068 268" fill="none" xmlns="http://www.w3.org/2000/svg">
<path d="M71.925 111.232H6.77301C4.72501 111.232 3.23168 110.763 2.29301 109.824C1.35434 108.885 0.88501 107.392 0.88501 105.344V22.4C0.88501 21.2907 1.01301 20.352 1.26901 19.584C1.61034 18.816 2.07968 18.176 2.67701 17.664L19.189 3.71199C19.6157 3.37066 20.1703 3.11465 20.853 2.94398C21.621 2.68799 22.4317 2.55999 23.285 2.55999H43.125C45.173 2.55999 46.6663 3.02932 47.605 3.96799C48.5437 4.90666 49.013 6.39999 49.013 8.44799V60.544L49.269 60.288L65.781 46.336C66.2077 45.9947 66.7623 45.7387 67.445 45.568C68.213 45.312 69.0237 45.184 69.877 45.184H88.437C90.485 45.184 91.9783 45.6533 92.917 46.592C93.8557 47.5307 94.325 49.024 94.325 51.072V91.392C94.325 92.5013 94.1543 93.44 93.813 94.208C93.557 94.976 93.1303 95.616 92.533 96.128L75.893 109.952C75.5517 110.293 74.997 110.592 74.229 110.848C73.5463 111.104 72.7783 111.232 71.925 111.232ZM88.437 96C90.0583 96 91.2103 95.6587 91.893 94.976C92.661 94.208 93.045 93.0133 93.045 91.392V51.072C93.045 49.4507 92.661 48.2987 91.893 47.616C91.2103 46.848 90.0583 46.464 88.437 46.464H69.877C68.2557 46.464 67.061 46.848 66.293 47.616C65.6103 48.2987 65.269 49.4507 65.269 51.072V71.808H47.733V8.44799C47.733 6.82666 47.349 5.67466 46.581 4.99199C45.8983 4.22399 44.7463 3.83999 43.125 3.83999H23.285C21.6637 3.83999 20.469 4.22399 19.701 4.99199C19.0183 5.67466 18.677 6.82666 18.677 8.44799V91.392C18.677 93.0133 19.0183 94.208 19.701 94.976C20.469 95.6587 21.6637 96 23.285 96H88.437Z" fill="black"/>
<path d="M167.915 111.232H108.523C106.475 111.232 104.982 110.763 104.043 109.824C103.104 108.885 102.635 107.392 102.635 105.344V22.4C102.635 21.2907 102.763 20.352 103.019 19.584C103.36 18.816 103.83 18.176 104.427 17.664L120.939 3.71199C121.366 3.37066 121.92 3.11465 122.603 2.94398C123.371 2.68799 124.182 2.55999 125.035 2.55999H184.427C186.475 2.55999 187.968 3.02932 188.907 3.96799C189.846 4.90666 190.315 6.39999 190.315 8.44799V23.424C190.315 24.5333 190.144 25.472 189.803 26.24C189.547 27.008 189.12 27.648 188.523 28.16L177.515 37.248C178.368 37.6747 178.966 38.3147 179.307 39.168C179.734 40.0213 179.947 41.1307 179.947 42.496V56.192C179.947 57.3013 179.776 58.24 179.435 59.008C179.179 59.776 178.752 60.416 178.155 60.928L166.763 70.528H184.427C186.475 70.528 187.968 70.9973 188.907 71.936C189.846 72.8747 190.315 74.368 190.315 76.416V91.392C190.315 92.5013 190.144 93.44 189.803 94.208C189.547 94.976 189.12 95.616 188.523 96.128L171.883 109.952C171.542 110.293 170.987 110.592 170.219 110.848C169.536 111.104 168.768 111.232 167.915 111.232ZM184.427 96C186.048 96 187.2 95.6587 187.883 94.976C188.651 94.208 189.035 93.0133 189.035 91.392V76.416C189.035 74.7947 188.651 73.6427 187.883 72.96C187.2 72.192 186.048 71.808 184.427 71.808H149.099V60.8H174.059C175.68 60.8 176.832 60.4587 177.515 59.776C178.283 59.008 178.667 57.8133 178.667 56.192V42.496C178.667 40.8747 178.283 39.7227 177.515 39.04C176.832 38.272 175.68 37.888 174.059 37.888H149.099V28.032H184.427C186.048 28.032 187.2 27.6907 187.883 27.008C188.651 26.24 189.035 25.0453 189.035 23.424V8.44799C189.035 6.82666 188.651 5.67466 187.883 4.99199C187.2 4.22399 186.048 3.83999 184.427 3.83999H125.035C123.414 3.83999 122.219 4.22399 121.451 4.99199C120.768 5.67466 120.427 6.82666 120.427 8.44799V91.392C120.427 93.0133 120.768 94.208 121.451 94.976C122.219 95.6587 123.414 96 125.035 96H184.427Z" fill="black"/>
<path d="M250.335 30.72C250.676 29.952 251.018 29.3973 251.359 29.056C251.786 28.7147 252.255 28.544 252.767 28.544H255.967C256.479 28.544 256.906 28.7147 257.247 29.056C257.674 29.3973 258.058 29.952 258.399 30.72L264.415 50.176H244.319L250.335 30.72ZM243.039 91.392V73.472H265.695V91.392C265.695 93.0133 266.079 94.208 266.847 94.976C267.7 95.6587 268.98 96 270.687 96H290.015C291.636 96 292.788 95.6587 293.471 94.976C294.239 94.208 294.623 93.0133 294.623 91.392V57.6C294.623 55.04 294.196 52.096 293.343 48.768C292.575 45.44 291.338 41.5573 289.631 37.12L278.495 8.06399C277.983 6.61332 277.172 5.54665 276.063 4.86399C275.039 4.18132 273.716 3.83999 272.095 3.83999H237.663C235.956 3.83999 234.548 4.18132 233.439 4.86399C232.415 5.54665 231.647 6.61332 231.135 8.06399L219.999 37.12C218.292 41.5573 217.012 45.44 216.159 48.768C215.391 52.096 215.007 55.04 215.007 57.6V91.392C215.007 93.0133 215.348 94.208 216.031 94.976C216.799 95.6587 217.994 96 219.615 96H238.431C240.052 96 241.204 95.6587 241.887 94.976C242.655 94.208 243.039 93.0133 243.039 91.392ZM225.887 109.952C225.546 110.293 224.991 110.592 224.223 110.848C223.54 111.104 222.772 111.232 221.919 111.232H203.103C201.055 111.232 199.562 110.763 198.623 109.824C197.684 108.885 197.215 107.392 197.215 105.344V71.552C197.215 68.9067 197.599 65.92 198.367 62.592C199.22 59.1787 200.543 55.168 202.335 50.56L213.343 21.632C213.599 20.864 213.898 20.224 214.239 19.712C214.666 19.1147 215.092 18.6027 215.519 18.176L215.647 18.048L232.031 4.35199C232.714 3.75465 233.524 3.32799 234.463 3.07199C235.402 2.73066 236.468 2.55999 237.663 2.55999H272.095C274.058 2.55999 275.636 2.98666 276.831 3.83999C278.111 4.60799 279.05 5.84532 279.647 7.55199L290.783 36.608C292.575 41.216 293.855 45.2267 294.623 48.64C295.476 51.968 295.903 54.9547 295.903 57.6V91.392C295.903 92.5013 295.732 93.44 295.391 94.208C295.135 94.976 294.708 95.616 294.111 96.128L277.471 109.952C277.13 110.293 276.575 110.592 275.807 110.848C275.124 111.104 274.356 111.232 273.503 111.232H254.175C252.042 111.232 250.463 110.72 249.439 109.696C248.415 108.757 247.903 107.307 247.903 105.344V88.704H244.319V91.392C244.319 92.5013 244.148 93.44 243.807 94.208C243.551 94.976 243.124 95.616 242.527 96.128L225.887 109.952Z" fill="black"/>
<path d="M331.113 111.232H311.273C309.225 111.232 307.732 110.763 306.793 109.824C305.854 108.885 305.385 107.392 305.385 105.344V22.4C305.385 21.2907 305.513 20.352 305.769 19.584C306.11 18.816 306.58 18.176 307.177 17.664L323.689 3.71199C324.116 3.37066 324.67 3.11465 325.353 2.94398C326.121 2.68799 326.932 2.55999 327.785 2.55999H384.873C386.921 2.55999 388.414 3.02932 389.353 3.96799C390.292 4.90666 390.761 6.39999 390.761 8.44799V23.68C390.761 24.7893 390.59 25.728 390.249 26.496C389.993 27.264 389.566 27.904 388.969 28.416L374.633 40.32C376.596 40.32 378.046 40.7893 378.985 41.728C379.924 42.6667 380.393 44.16 380.393 46.208V61.568C380.393 62.6773 380.222 63.616 379.881 64.384C379.625 65.152 379.198 65.792 378.601 66.304L361.961 80.128C361.62 80.4693 361.065 80.768 360.297 81.024C359.614 81.28 358.846 81.408 357.993 81.408H353.513V91.392C353.513 92.5013 353.342 93.44 353.001 94.208C352.745 94.976 352.318 95.616 351.721 96.128L335.081 109.952C334.74 110.293 334.185 110.592 333.417 110.848C332.734 111.104 331.966 111.232 331.113 111.232ZM347.625 96C349.246 96 350.398 95.6587 351.081 94.976C351.849 94.208 352.233 93.0133 352.233 91.392V66.176H374.505C376.126 66.176 377.278 65.8347 377.961 65.152C378.729 64.384 379.113 63.1893 379.113 61.568V46.208C379.113 44.5867 378.729 43.4347 377.961 42.752C377.278 41.984 376.126 41.6 374.505 41.6H352.233V28.288H384.873C386.494 28.288 387.646 27.9467 388.329 27.264C389.097 26.496 389.481 25.3013 389.481 23.68V8.44799C389.481 6.82666 389.097 5.67466 388.329 4.99199C387.646 4.22399 386.494 3.83999 384.873 3.83999H327.785C326.164 3.83999 324.969 4.22399 324.201 4.99199C323.518 5.67466 323.177 6.82666 323.177 8.44799V91.392C323.177 93.0133 323.518 94.208 324.201 94.976C324.969 95.6587 326.164 96 327.785 96H347.625Z" fill="black"/>
<path d="M443.523 111.232C441.475 111.232 439.982 110.763 439.043 109.824C438.104 108.885 437.635 107.392 437.635 105.344V22.4C437.635 21.2907 437.763 20.352 438.019 19.584C438.36 18.816 438.83 18.176 439.427 17.664L455.939 3.71199C456.366 3.37066 456.92 3.11465 457.603 2.94398C458.371 2.68799 459.182 2.55999 460.035 2.55999H500.867C509.742 2.55999 516.27 4.30932 520.451 7.80799C524.632 11.2213 526.723 16.4267 526.723 23.424V29.568C526.723 32.5547 526.296 35.1147 525.443 37.248C524.675 39.3813 523.48 41.088 521.859 42.368L521.475 42.624C526.083 43.648 529.539 45.8667 531.843 49.28C534.147 52.608 535.299 57.2587 535.299 63.232V75.008C535.299 78.848 534.744 82.176 533.635 84.992C532.526 87.7227 530.862 90.0267 528.643 91.904L512.131 105.856C509.998 107.648 507.31 108.971 504.067 109.824C500.824 110.763 497.027 111.232 492.675 111.232H443.523ZM509.187 96C517.635 96 523.864 94.2933 527.875 90.88C531.971 87.4667 534.019 82.176 534.019 75.008V63.232C534.019 57.0027 532.696 52.2667 530.051 49.024C527.406 45.7813 523.352 43.904 517.891 43.392C520.451 42.2827 522.328 40.6187 523.523 38.4C524.803 36.096 525.443 33.152 525.443 29.568V23.424C525.443 16.768 523.438 11.8613 519.427 8.70399C515.416 5.46132 509.23 3.83999 500.867 3.83999H460.035C458.414 3.83999 457.219 4.22399 456.451 4.99199C455.768 5.67466 455.427 6.82666 455.427 8.44799V91.392C455.427 93.0133 455.768 94.208 456.451 94.976C457.219 95.6587 458.414 96 460.035 96H509.187ZM484.227 25.6H495.107C496.728 25.6 497.923 26.0267 498.691 26.88C499.544 27.7333 499.971 29.0133 499.971 30.72V34.304C499.971 36.0107 499.544 37.2907 498.691 38.144C497.923 38.9973 496.728 39.424 495.107 39.424H484.227V25.6ZM484.227 59.136H500.867C502.488 59.136 503.683 59.5627 504.451 60.416C505.304 61.184 505.731 62.4213 505.731 64.128V69.12C505.731 70.8267 505.304 72.1067 504.451 72.96C503.683 73.8133 502.488 74.24 500.867 74.24H484.227V59.136Z" fill="black"/>
<path d="M614.3 111.232H549.148C547.1 111.232 545.607 110.763 544.668 109.824C543.729 108.885 543.26 107.392 543.26 105.344V22.4C543.26 21.2907 543.388 20.352 543.644 19.584C543.985 18.816 544.455 18.176 545.052 17.664L561.564 3.71199C561.991 3.37066 562.545 3.11465 563.228 2.94398C563.996 2.68799 564.807 2.55999 565.66 2.55999H585.5C587.548 2.55999 589.041 3.02932 589.98 3.96799C590.919 4.90666 591.388 6.39999 591.388 8.44799V60.544L591.644 60.288L608.156 46.336C608.583 45.9947 609.137 45.7387 609.82 45.568C610.588 45.312 611.399 45.184 612.252 45.184H630.812C632.86 45.184 634.353 45.6533 635.292 46.592C636.231 47.5307 636.7 49.024 636.7 51.072V91.392C636.7 92.5013 636.529 93.44 636.188 94.208C635.932 94.976 635.505 95.616 634.908 96.128L618.268 109.952C617.927 110.293 617.372 110.592 616.604 110.848C615.921 111.104 615.153 111.232 614.3 111.232ZM630.812 96C632.433 96 633.585 95.6587 634.268 94.976C635.036 94.208 635.42 93.0133 635.42 91.392V51.072C635.42 49.4507 635.036 48.2987 634.268 47.616C633.585 46.848 632.433 46.464 630.812 46.464H612.252C610.631 46.464 609.436 46.848 608.668 47.616C607.985 48.2987 607.644 49.4507 607.644 51.072V71.808H590.108V8.44799C590.108 6.82666 589.724 5.67466 588.956 4.99199C588.273 4.22399 587.121 3.83999 585.5 3.83999H565.66C564.039 3.83999 562.844 4.22399 562.076 4.99199C561.393 5.67466 561.052 6.82666 561.052 8.44799V91.392C561.052 93.0133 561.393 94.208 562.076 94.976C562.844 95.6587 564.039 96 565.66 96H630.812Z" fill="black"/>
<path d="M717.97 105.088C714.983 107.648 710.802 109.611 705.426 110.976C700.05 112.427 693.138 113.152 684.69 113.152C676.327 113.152 669.458 112.256 664.082 110.464C658.791 108.757 654.61 106.453 651.538 103.552C648.551 100.651 646.461 97.3227 645.266 93.568C644.157 89.8133 643.602 85.9307 643.602 81.92V42.112C643.602 38.1867 644.157 34.56 645.266 31.232C646.375 27.8187 648.381 24.9173 651.282 22.528L667.922 8.70399C670.909 6.14399 675.047 4.18132 680.338 2.81599C685.714 1.36532 692.669 0.639984 701.202 0.639984C709.565 0.639984 716.391 1.32265 721.682 2.68799C727.058 4.05332 731.239 5.97332 734.226 8.44799C737.298 10.8373 739.389 13.7387 740.498 17.152C741.607 20.48 742.162 24.1493 742.162 28.16V71.808C742.162 75.7333 741.607 79.36 740.498 82.688C739.389 86.016 737.383 88.8747 734.482 91.264L717.97 105.088ZM740.882 71.808V28.16C740.882 24.2347 740.285 20.6933 739.09 17.536C737.981 14.2933 735.933 11.52 732.946 9.21599C730.045 6.91199 725.991 5.11999 720.786 3.83999C715.666 2.55999 709.138 1.91999 701.202 1.91999C693.266 1.91999 686.695 2.55999 681.49 3.83999C676.285 5.11999 672.189 6.91199 669.202 9.21599C666.301 11.52 664.253 14.2933 663.058 17.536C661.949 20.6933 661.394 24.2347 661.394 28.16V71.808C661.394 75.7333 661.949 79.3173 663.058 82.56C664.253 85.7173 666.301 88.448 669.202 90.752C672.189 92.9707 676.285 94.72 681.49 96C686.695 97.28 693.266 97.92 701.202 97.92C709.138 97.92 715.666 97.28 720.786 96C725.991 94.72 730.045 92.9707 732.946 90.752C735.933 88.448 737.981 85.7173 739.09 82.56C740.285 79.3173 740.882 75.7333 740.882 71.808ZM690.45 67.2V32.768C690.45 31.1467 691.09 29.7813 692.37 28.672C693.65 27.4773 696.594 26.88 701.202 26.88C705.81 26.88 708.754 27.4773 710.034 28.672C711.314 29.7813 711.954 31.1467 711.954 32.768V67.2C711.954 68.9067 711.314 70.3573 710.034 71.552C708.754 72.6613 705.81 73.216 701.202 73.216C696.594 73.216 693.65 72.6613 692.37 71.552C691.09 70.3573 690.45 68.9067 690.45 67.2ZM691.73 67.2C691.73 68.0533 691.901 68.8213 692.242 69.504C692.583 70.1013 693.223 70.6133 694.162 71.04V46.72C694.162 45.8667 693.991 45.1413 693.65 44.544C693.309 43.8613 692.669 43.3493 691.73 43.008V67.2Z" fill="black"/>
<path d="M836.103 3.83999C834.482 3.83999 833.287 4.22399 832.519 4.99199C831.836 5.67466 831.495 6.82666 831.495 8.44799V55.552L824.071 39.424C823.388 37.9733 822.492 36.9493 821.383 36.352C820.274 35.7547 818.908 35.456 817.287 35.456H811.911C810.29 35.456 808.924 35.7547 807.815 36.352C806.706 36.9493 805.81 37.9733 805.127 39.424L797.703 55.552V8.44799C797.703 6.82666 797.319 5.67466 796.551 4.99199C795.868 4.22399 794.716 3.83999 793.095 3.83999H773.383C771.762 3.83999 770.567 4.22399 769.799 4.99199C769.116 5.67466 768.775 6.82666 768.775 8.44799V57.856C768.775 60.5867 768.86 63.1467 769.031 65.536C769.287 67.84 769.97 70.5707 771.079 73.728L777.479 91.392C777.906 92.7573 778.588 93.8667 779.527 94.72C780.551 95.5733 781.746 96 783.111 96H800.007C801.372 96 802.524 95.7013 803.463 95.104C804.402 94.4213 805.042 93.44 805.383 92.16L811.399 71.296C811.655 70.4427 811.954 69.888 812.295 69.632C812.722 69.2907 813.191 69.12 813.703 69.12H814.855C815.367 69.12 815.794 69.2907 816.135 69.632C816.562 69.888 816.903 70.4427 817.159 71.296L823.047 92.16C823.388 93.5253 824.114 94.5067 825.223 95.104C826.332 95.7013 827.57 96 828.935 96H845.959C847.324 96 848.391 95.5733 849.159 94.72C850.012 93.7813 850.652 92.672 851.079 91.392L857.479 73.984C858.588 70.8267 859.228 68.096 859.399 65.792C859.655 63.4027 859.783 60.8427 859.783 58.112V8.44799C859.783 6.82666 859.399 5.67466 858.631 4.99199C857.948 4.22399 856.796 3.83999 855.175 3.83999H836.103ZM787.975 109.696C787.378 110.123 786.695 110.464 785.927 110.72C785.159 111.061 784.348 111.232 783.495 111.232H766.599C764.978 111.232 763.57 110.72 762.375 109.696C761.18 108.672 760.327 107.349 759.815 105.728L753.415 88.064C752.22 84.9067 751.495 82.1333 751.239 79.744C751.068 77.2693 750.983 74.624 750.983 71.808V22.4C750.983 21.2907 751.111 20.352 751.367 19.584C751.708 18.816 752.178 18.176 752.775 17.664L769.287 3.71199C769.714 3.37066 770.268 3.11465 770.951 2.94398C771.719 2.68799 772.53 2.55999 773.383 2.55999H793.095C795.143 2.55999 796.636 3.02932 797.575 3.96799C798.514 4.90666 798.983 6.39999 798.983 8.44799V41.856L806.151 35.84C806.834 35.2427 807.644 34.816 808.583 34.56C809.607 34.304 810.716 34.176 811.911 34.176H813.703V22.4C813.703 21.2907 813.831 20.352 814.087 19.584C814.343 18.816 814.727 18.2187 815.239 17.792L815.367 17.664L832.007 3.71199C832.434 3.37066 832.988 3.11465 833.671 2.94398C834.354 2.68799 835.164 2.55999 836.103 2.55999H855.175C857.223 2.55999 858.716 3.02932 859.655 3.96799C860.594 4.90666 861.063 6.39999 861.063 8.44799V58.112C861.063 60.928 860.935 63.5733 860.679 66.048C860.508 68.4373 859.826 71.2107 858.631 74.368L852.231 91.776C851.975 92.6293 851.634 93.3973 851.207 94.08C850.78 94.7627 850.268 95.4027 849.671 96L833.159 109.696C832.647 110.208 832.092 110.592 831.495 110.848C830.898 111.104 830.215 111.232 829.447 111.232H812.423C810.716 111.232 809.223 110.848 807.943 110.08C806.663 109.312 805.767 108.117 805.255 106.496L802.695 97.408L787.975 109.696Z" fill="black"/>
<path d="M936.54 111.232H877.148C875.1 111.232 873.607 110.763 872.668 109.824C871.729 108.885 871.26 107.392 871.26 105.344V22.4C871.26 21.2907 871.388 20.352 871.644 19.584C871.985 18.816 872.455 18.176 873.052 17.664L889.564 3.71199C889.991 3.37066 890.545 3.11465 891.228 2.94398C891.996 2.68799 892.807 2.55999 893.66 2.55999H953.052C955.1 2.55999 956.593 3.02932 957.532 3.96799C958.471 4.90666 958.94 6.39999 958.94 8.44799V23.424C958.94 24.5333 958.769 25.472 958.428 26.24C958.172 27.008 957.745 27.648 957.148 28.16L946.14 37.248C946.993 37.6747 947.591 38.3147 947.932 39.168C948.359 40.0213 948.572 41.1307 948.572 42.496V56.192C948.572 57.3013 948.401 58.24 948.06 59.008C947.804 59.776 947.377 60.416 946.78 60.928L935.388 70.528H953.052C955.1 70.528 956.593 70.9973 957.532 71.936C958.471 72.8747 958.94 74.368 958.94 76.416V91.392C958.94 92.5013 958.769 93.44 958.428 94.208C958.172 94.976 957.745 95.616 957.148 96.128L940.508 109.952C940.167 110.293 939.612 110.592 938.844 110.848C938.161 111.104 937.393 111.232 936.54 111.232ZM953.052 96C954.673 96 955.825 95.6587 956.508 94.976C957.276 94.208 957.66 93.0133 957.66 91.392V76.416C957.66 74.7947 957.276 73.6427 956.508 72.96C955.825 72.192 954.673 71.808 953.052 71.808H917.724V60.8H942.684C944.305 60.8 945.457 60.4587 946.14 59.776C946.908 59.008 947.292 57.8133 947.292 56.192V42.496C947.292 40.8747 946.908 39.7227 946.14 39.04C945.457 38.272 944.305 37.888 942.684 37.888H917.724V28.032H953.052C954.673 28.032 955.825 27.6907 956.508 27.008C957.276 26.24 957.66 25.0453 957.66 23.424V8.44799C957.66 6.82666 957.276 5.67466 956.508 4.99199C955.825 4.22399 954.673 3.83999 953.052 3.83999H893.66C892.039 3.83999 890.844 4.22399 890.076 4.99199C889.393 5.67466 889.052 6.82666 889.052 8.44799V91.392C889.052 93.0133 889.393 94.208 890.076 94.976C890.844 95.6587 892.039 96 893.66 96H953.052Z" fill="black"/>
<path d="M1014.48 26.88H1024.08C1026.3 26.88 1027.79 27.4773 1028.56 28.672C1029.33 29.7813 1029.71 31.1893 1029.71 32.896V37.248C1029.71 38.9547 1029.33 40.4053 1028.56 41.6C1027.79 42.7093 1026.3 43.264 1024.08 43.264H1014.48V26.88ZM1009.87 96C1011.49 96 1012.65 95.6587 1013.33 94.976C1014.1 94.208 1014.48 93.0133 1014.48 91.392V66.304H1032.4C1034.19 66.304 1035.43 66.7733 1036.11 67.712C1036.88 68.5653 1037.26 69.9307 1037.26 71.808V91.392C1037.26 93.0133 1037.61 94.208 1038.29 94.976C1039.06 95.6587 1040.25 96 1041.87 96H1061.71C1063.33 96 1064.49 95.6587 1065.17 94.976C1065.94 94.208 1066.32 93.0133 1066.32 91.392V64.256C1066.32 58.88 1064.87 54.5707 1061.97 51.328C1059.15 48.0853 1055.44 46.208 1050.83 45.696C1053.48 44.5867 1055.31 42.7947 1056.34 40.32C1057.45 37.76 1058 34.688 1058 31.104V25.216C1058 18.9013 1056.17 13.7813 1052.5 9.85599C1048.91 5.84532 1042.34 3.83999 1032.78 3.83999H990.16C988.539 3.83999 987.344 4.22399 986.576 4.99199C985.893 5.67466 985.552 6.82666 985.552 8.44799V91.392C985.552 93.0133 985.893 94.208 986.576 94.976C987.344 95.6587 988.539 96 990.16 96H1009.87ZM1013.97 96.128L997.328 109.952C996.987 110.293 996.432 110.592 995.664 110.848C994.981 111.104 994.213 111.232 993.36 111.232H973.648C971.6 111.232 970.107 110.763 969.168 109.824C968.229 108.885 967.76 107.392 967.76 105.344V22.4C967.76 21.2907 967.888 20.352 968.144 19.584C968.485 18.816 968.955 18.176 969.552 17.664L986.064 3.71199C986.491 3.37066 987.045 3.11465 987.728 2.94398C988.496 2.68799 989.307 2.55999 990.16 2.55999H1032.78C1042.94 2.55999 1049.89 4.69332 1053.65 8.95999C1057.4 13.1413 1059.28 18.56 1059.28 25.216V31.104C1059.28 34.2613 1058.9 37.0347 1058.13 39.424C1057.36 41.728 1056.12 43.6053 1054.42 45.056H1054.29C1058.3 46.1653 1061.5 48.384 1063.89 51.712C1066.36 55.04 1067.6 59.2213 1067.6 64.256V91.392C1067.6 92.5013 1067.43 93.44 1067.09 94.208C1066.83 94.976 1066.41 95.616 1065.81 96.128L1049.17 109.952C1048.83 110.293 1048.27 110.592 1047.5 110.848C1046.82 111.104 1046.05 111.232 1045.2 111.232H1025.36C1023.31 111.232 1021.82 110.763 1020.88 109.824C1019.94 108.885 1019.47 107.392 1019.47 105.344V85.76C1019.47 84.3947 1019.22 83.3707 1018.7 82.688C1018.19 81.92 1017.25 81.536 1015.89 81.536H1015.76V91.392C1015.76 92.5013 1015.59 93.44 1015.25 94.208C1014.99 94.976 1014.57 95.616 1013.97 96.128Z" fill="black"/>
<path d="M290.727 265.232H259.495C248.316 265.232 240.039 262.331 234.663 256.528C229.372 250.725 226.727 243.216 226.727 234V198.032C226.727 193.339 227.41 189.285 228.775 185.872C230.14 182.373 232.146 179.472 234.791 177.168L251.431 163.216C254.076 160.997 257.447 159.333 261.543 158.224C265.639 157.115 270.46 156.56 276.007 156.56H307.239C309.287 156.56 310.78 157.029 311.719 157.968C312.658 158.907 313.127 160.4 313.127 162.448V177.936C313.127 179.045 312.956 179.984 312.615 180.752C312.359 181.52 311.932 182.16 311.335 182.672L294.695 196.496C294.354 196.837 293.799 197.136 293.031 197.392C292.348 197.648 291.58 197.776 290.727 197.776H274.983V219.408C274.983 221.2 275.538 222.48 276.647 223.248C277.756 223.931 279.378 224.272 281.511 224.272H307.239C309.287 224.272 310.78 224.741 311.719 225.68C312.658 226.619 313.127 228.112 313.127 230.16V245.392C313.127 246.501 312.956 247.44 312.615 248.208C312.359 248.976 311.932 249.616 311.335 250.128L294.695 263.952C294.354 264.293 293.799 264.592 293.031 264.848C292.348 265.104 291.58 265.232 290.727 265.232ZM307.239 250C308.86 250 310.012 249.659 310.695 248.976C311.463 248.208 311.847 247.013 311.847 245.392V230.16C311.847 228.539 311.463 227.387 310.695 226.704C310.012 225.936 308.86 225.552 307.239 225.552H281.511C278.866 225.552 276.903 225.083 275.623 224.144C274.343 223.12 273.703 221.541 273.703 219.408V188.944C273.703 186.811 274.343 185.232 275.623 184.208C276.903 183.099 278.866 182.544 281.511 182.544H307.239C308.86 182.544 310.012 182.203 310.695 181.52C311.463 180.752 311.847 179.557 311.847 177.936V162.448C311.847 160.827 311.463 159.675 310.695 158.992C310.012 158.224 308.86 157.84 307.239 157.84H276.007C265.34 157.84 257.404 160.016 252.199 164.368C247.079 168.635 244.519 175.205 244.519 184.08V223.888C244.519 232.763 247.079 239.333 252.199 243.6C257.404 247.867 265.34 250 276.007 250H307.239Z" fill="black"/>
<path d="M361.452 267.152C353.175 267.152 346.348 266.256 340.972 264.464C335.681 262.757 331.543 260.453 328.556 257.552C325.569 254.651 323.479 251.323 322.284 247.568C321.175 243.813 320.62 239.931 320.62 235.92V176.4C320.62 175.291 320.748 174.352 321.004 173.584C321.345 172.816 321.815 172.176 322.412 171.664L338.924 157.712C339.351 157.371 339.905 157.115 340.588 156.944C341.356 156.688 342.167 156.56 343.02 156.56H363.116C365.164 156.56 366.657 157.029 367.596 157.968C368.535 158.907 369.004 160.4 369.004 162.448V220.816C369.004 221.584 369.132 222.309 369.388 222.992C369.644 223.589 370.199 224.059 371.052 224.4V176.4C371.052 175.291 371.18 174.352 371.436 173.584C371.692 172.816 372.076 172.219 372.588 171.792L372.716 171.664L389.356 157.712C389.783 157.371 390.337 157.115 391.02 156.944C391.703 156.688 392.513 156.56 393.452 156.56H412.908C414.956 156.56 416.449 157.029 417.388 157.968C418.327 158.907 418.796 160.4 418.796 162.448V225.808C418.796 229.733 418.241 233.36 417.132 236.688C416.023 240.016 414.017 242.875 411.116 245.264L394.476 259.088C391.489 261.648 387.351 263.611 382.06 264.976C376.769 266.427 369.9 267.152 361.452 267.152ZM417.516 225.808V162.448C417.516 160.827 417.132 159.675 416.364 158.992C415.681 158.224 414.529 157.84 412.908 157.84H393.452C391.831 157.84 390.636 158.224 389.868 158.992C389.185 159.675 388.844 160.827 388.844 162.448V220.816C388.844 222.523 388.204 223.973 386.924 225.168C385.644 226.277 382.743 226.832 378.22 226.832C373.783 226.832 370.924 226.277 369.644 225.168C368.364 223.973 367.724 222.523 367.724 220.816V162.448C367.724 160.827 367.34 159.675 366.572 158.992C365.889 158.224 364.737 157.84 363.116 157.84H343.02C341.399 157.84 340.204 158.224 339.436 158.992C338.753 159.675 338.412 160.827 338.412 162.448V225.808C338.412 229.733 338.967 233.317 340.076 236.56C341.271 239.717 343.319 242.448 346.22 244.752C349.207 246.971 353.26 248.72 358.38 250C363.5 251.28 370.028 251.92 377.964 251.92C385.9 251.92 392.428 251.28 397.548 250C402.668 248.72 406.679 246.971 409.58 244.752C412.567 242.448 414.615 239.717 415.724 236.56C416.919 233.317 417.516 229.733 417.516 225.808Z" fill="black"/>
<path d="M476.23 180.88H485.83C488.049 180.88 489.542 181.477 490.31 182.672C491.078 183.781 491.462 185.189 491.462 186.896V191.248C491.462 192.955 491.078 194.405 490.31 195.6C489.542 196.709 488.049 197.264 485.83 197.264H476.23V180.88ZM471.622 250C473.243 250 474.395 249.659 475.078 248.976C475.846 248.208 476.23 247.013 476.23 245.392V220.304H494.15C495.942 220.304 497.179 220.773 497.862 221.712C498.63 222.565 499.014 223.931 499.014 225.808V245.392C499.014 247.013 499.355 248.208 500.038 248.976C500.806 249.659 502.001 250 503.622 250H523.462C525.083 250 526.235 249.659 526.918 248.976C527.686 248.208 528.07 247.013 528.07 245.392V218.256C528.07 212.88 526.619 208.571 523.718 205.328C520.902 202.085 517.19 200.208 512.582 199.696C515.227 198.587 517.062 196.795 518.086 194.32C519.195 191.76 519.75 188.688 519.75 185.104V179.216C519.75 172.901 517.915 167.781 514.246 163.856C510.662 159.845 504.091 157.84 494.534 157.84H451.91C450.289 157.84 449.094 158.224 448.326 158.992C447.643 159.675 447.302 160.827 447.302 162.448V245.392C447.302 247.013 447.643 248.208 448.326 248.976C449.094 249.659 450.289 250 451.91 250H471.622ZM475.718 250.128L459.078 263.952C458.737 264.293 458.182 264.592 457.414 264.848C456.731 265.104 455.963 265.232 455.11 265.232H435.398C433.35 265.232 431.857 264.763 430.918 263.824C429.979 262.885 429.51 261.392 429.51 259.344V176.4C429.51 175.291 429.638 174.352 429.894 173.584C430.235 172.816 430.705 172.176 431.302 171.664L447.814 157.712C448.241 157.371 448.795 157.115 449.478 156.944C450.246 156.688 451.057 156.56 451.91 156.56H494.534C504.689 156.56 511.643 158.693 515.398 162.96C519.153 167.141 521.03 172.56 521.03 179.216V185.104C521.03 188.261 520.646 191.035 519.878 193.424C519.11 195.728 517.873 197.605 516.166 199.056H516.038C520.049 200.165 523.249 202.384 525.638 205.712C528.113 209.04 529.35 213.221 529.35 218.256V245.392C529.35 246.501 529.179 247.44 528.838 248.208C528.582 248.976 528.155 249.616 527.558 250.128L510.918 263.952C510.577 264.293 510.022 264.592 509.254 264.848C508.571 265.104 507.803 265.232 506.95 265.232H487.11C485.062 265.232 483.569 264.763 482.63 263.824C481.691 262.885 481.222 261.392 481.222 259.344V239.76C481.222 238.395 480.966 237.371 480.454 236.688C479.942 235.92 479.003 235.536 477.638 235.536H477.51V245.392C477.51 246.501 477.339 247.44 476.998 248.208C476.742 248.976 476.315 249.616 475.718 250.128Z" fill="black"/>
<path d="M540.969 265.232C538.921 265.232 537.428 264.763 536.489 263.824C535.55 262.885 535.081 261.392 535.081 259.344V244.368C535.081 243.259 535.209 242.32 535.465 241.552C535.806 240.784 536.276 240.144 536.873 239.632L549.673 228.88C545.15 227.515 541.566 225.211 538.921 221.968C536.361 218.64 535.081 213.904 535.081 207.76V194.32C535.081 190.48 535.721 187.067 537.001 184.08C538.281 181.093 540.116 178.576 542.505 176.528L559.145 162.576C561.449 160.699 564.308 159.248 567.721 158.224C571.134 157.115 575.017 156.56 579.369 156.56H615.209C617.257 156.56 618.75 157.029 619.689 157.968C620.628 158.907 621.097 160.4 621.097 162.448V177.68C621.097 178.789 620.926 179.728 620.585 180.496C620.329 181.264 619.902 181.904 619.305 182.416L607.785 192.016C613.161 193.211 617.47 195.472 620.713 198.8C624.041 202.043 625.705 207.12 625.705 214.032V227.472C625.705 231.312 625.065 234.725 623.785 237.712C622.505 240.699 620.628 243.216 618.153 245.264L601.641 259.088C599.252 261.051 596.35 262.544 592.937 263.568C589.524 264.677 585.684 265.232 581.417 265.232H540.969ZM597.929 250C606.121 250 612.564 248.08 617.257 244.24C622.036 240.315 624.425 234.725 624.425 227.472V214.032C624.425 206.864 622.59 201.744 618.921 198.672C615.252 195.6 610.43 193.637 604.457 192.784L585.385 190.224C584.276 190.139 583.422 189.712 582.825 188.944C582.228 188.176 581.929 187.237 581.929 186.128C581.929 185.019 582.228 184.123 582.825 183.44C583.422 182.672 584.276 182.288 585.385 182.288H615.209C616.83 182.288 617.982 181.947 618.665 181.264C619.433 180.496 619.817 179.301 619.817 177.68V162.448C619.817 160.827 619.433 159.675 618.665 158.992C617.982 158.224 616.83 157.84 615.209 157.84H579.369C571.092 157.84 564.606 159.803 559.913 163.728C555.22 167.568 552.873 173.115 552.873 180.368V193.808C552.873 200.976 554.665 206.096 558.249 209.168C561.918 212.24 566.74 214.203 572.713 215.056L591.913 217.744C593.022 217.829 593.833 218.213 594.345 218.896C594.942 219.579 595.241 220.645 595.241 222.096C595.241 223.12 594.942 224.016 594.345 224.784C593.833 225.467 593.022 225.808 591.913 225.808H557.481C555.86 225.808 554.665 226.192 553.897 226.96C553.214 227.643 552.873 228.795 552.873 230.416V245.392C552.873 247.013 553.214 248.208 553.897 248.976C554.665 249.659 555.86 250 557.481 250H597.929Z" fill="black"/>
<path d="M706.345 259.088C703.358 261.648 699.177 263.611 693.801 264.976C688.425 266.427 681.513 267.152 673.065 267.152C664.702 267.152 657.833 266.256 652.457 264.464C647.166 262.757 642.985 260.453 639.913 257.552C636.926 254.651 634.836 251.323 633.641 247.568C632.532 243.813 631.977 239.931 631.977 235.92V196.112C631.977 192.187 632.532 188.56 633.641 185.232C634.75 181.819 636.756 178.917 639.657 176.528L656.297 162.704C659.284 160.144 663.422 158.181 668.713 156.816C674.089 155.365 681.044 154.64 689.577 154.64C697.94 154.64 704.766 155.323 710.057 156.688C715.433 158.053 719.614 159.973 722.601 162.448C725.673 164.837 727.764 167.739 728.873 171.152C729.982 174.48 730.537 178.149 730.537 182.16V225.808C730.537 229.733 729.982 233.36 728.873 236.688C727.764 240.016 725.758 242.875 722.857 245.264L706.345 259.088ZM729.257 225.808V182.16C729.257 178.235 728.66 174.693 727.465 171.536C726.356 168.293 724.308 165.52 721.321 163.216C718.42 160.912 714.366 159.12 709.161 157.84C704.041 156.56 697.513 155.92 689.577 155.92C681.641 155.92 675.07 156.56 669.865 157.84C664.66 159.12 660.564 160.912 657.577 163.216C654.676 165.52 652.628 168.293 651.433 171.536C650.324 174.693 649.769 178.235 649.769 182.16V225.808C649.769 229.733 650.324 233.317 651.433 236.56C652.628 239.717 654.676 242.448 657.577 244.752C660.564 246.971 664.66 248.72 669.865 250C675.07 251.28 681.641 251.92 689.577 251.92C697.513 251.92 704.041 251.28 709.161 250C714.366 248.72 718.42 246.971 721.321 244.752C724.308 242.448 726.356 239.717 727.465 236.56C728.66 233.317 729.257 229.733 729.257 225.808ZM678.825 221.2V186.768C678.825 185.147 679.465 183.781 680.745 182.672C682.025 181.477 684.969 180.88 689.577 180.88C694.185 180.88 697.129 181.477 698.409 182.672C699.689 183.781 700.329 185.147 700.329 186.768V221.2C700.329 222.907 699.689 224.357 698.409 225.552C697.129 226.661 694.185 227.216 689.577 227.216C684.969 227.216 682.025 226.661 680.745 225.552C679.465 224.357 678.825 222.907 678.825 221.2ZM680.105 221.2C680.105 222.053 680.276 222.821 680.617 223.504C680.958 224.101 681.598 224.613 682.537 225.04V200.72C682.537 199.867 682.366 199.141 682.025 198.544C681.684 197.861 681.044 197.349 680.105 197.008V221.2Z" fill="black"/>
<path d="M787.23 180.88H796.83C799.049 180.88 800.542 181.477 801.31 182.672C802.078 183.781 802.462 185.189 802.462 186.896V191.248C802.462 192.955 802.078 194.405 801.31 195.6C800.542 196.709 799.049 197.264 796.83 197.264H787.23V180.88ZM782.622 250C784.243 250 785.395 249.659 786.078 248.976C786.846 248.208 787.23 247.013 787.23 245.392V220.304H805.15C806.942 220.304 808.179 220.773 808.862 221.712C809.63 222.565 810.014 223.931 810.014 225.808V245.392C810.014 247.013 810.355 248.208 811.038 248.976C811.806 249.659 813.001 250 814.622 250H834.462C836.083 250 837.235 249.659 837.918 248.976C838.686 248.208 839.07 247.013 839.07 245.392V218.256C839.07 212.88 837.619 208.571 834.718 205.328C831.902 202.085 828.19 200.208 823.582 199.696C826.227 198.587 828.062 196.795 829.086 194.32C830.195 191.76 830.75 188.688 830.75 185.104V179.216C830.75 172.901 828.915 167.781 825.246 163.856C821.662 159.845 815.091 157.84 805.534 157.84H762.91C761.289 157.84 760.094 158.224 759.326 158.992C758.643 159.675 758.302 160.827 758.302 162.448V245.392C758.302 247.013 758.643 248.208 759.326 248.976C760.094 249.659 761.289 250 762.91 250H782.622ZM786.718 250.128L770.078 263.952C769.737 264.293 769.182 264.592 768.414 264.848C767.731 265.104 766.963 265.232 766.11 265.232H746.398C744.35 265.232 742.857 264.763 741.918 263.824C740.979 262.885 740.51 261.392 740.51 259.344V176.4C740.51 175.291 740.638 174.352 740.894 173.584C741.235 172.816 741.705 172.176 742.302 171.664L758.814 157.712C759.241 157.371 759.795 157.115 760.478 156.944C761.246 156.688 762.057 156.56 762.91 156.56H805.534C815.689 156.56 822.643 158.693 826.398 162.96C830.153 167.141 832.03 172.56 832.03 179.216V185.104C832.03 188.261 831.646 191.035 830.878 193.424C830.11 195.728 828.873 197.605 827.166 199.056H827.038C831.049 200.165 834.249 202.384 836.638 205.712C839.113 209.04 840.35 213.221 840.35 218.256V245.392C840.35 246.501 840.179 247.44 839.838 248.208C839.582 248.976 839.155 249.616 838.558 250.128L821.918 263.952C821.577 264.293 821.022 264.592 820.254 264.848C819.571 265.104 818.803 265.232 817.95 265.232H798.11C796.062 265.232 794.569 264.763 793.63 263.824C792.691 262.885 792.222 261.392 792.222 259.344V239.76C792.222 238.395 791.966 237.371 791.454 236.688C790.942 235.92 790.003 235.536 788.638 235.536H788.51V245.392C788.51 246.501 788.339 247.44 787.998 248.208C787.742 248.976 787.315 249.616 786.718 250.128Z" fill="black"/>
<path d="M630.812 96C632.433 96 633.585 95.6587 634.268 94.976C635.036 94.208 635.42 93.0133 635.42 91.392V51.072C635.42 49.4507 635.036 48.2987 634.268 47.616C633.585 46.848 632.433 46.464 630.812 46.464H612.252C610.631 46.464 609.436 46.848 608.668 47.616C607.985 48.2987 607.644 49.4507 607.644 51.072V71.808H590.108V8.44799C590.108 6.82666 589.724 5.67466 588.956 4.99199C588.273 4.22399 587.121 3.83999 585.5 3.83999H565.66C564.039 3.83999 562.844 4.22399 562.076 4.99199C561.393 5.67466 561.052 6.82666 561.052 8.44799V91.392C561.052 93.0133 561.393 94.208 562.076 94.976C562.844 95.6587 564.039 96 565.66 96H630.812Z" fill="#EDEDED"/>
<path fill-rule="evenodd" clip-rule="evenodd" d="M509.187 96C517.635 96 523.864 94.2933 527.875 90.88C531.971 87.4667 534.019 82.176 534.019 75.008V63.232C534.019 57.0027 532.696 52.2667 530.051 49.024C527.406 45.7813 523.352 43.904 517.891 43.392C520.451 42.2827 522.328 40.6187 523.523 38.4C524.803 36.096 525.443 33.152 525.443 29.568V23.424C525.443 16.768 523.438 11.8613 519.427 8.70399C515.416 5.46132 509.23 3.83999 500.867 3.83999H460.035C458.414 3.83999 457.219 4.22399 456.451 4.99199C455.768 5.67466 455.427 6.82666 455.427 8.44799V91.392C455.427 93.0133 455.768 94.208 456.451 94.976C457.219 95.6587 458.414 96 460.035 96H509.187ZM495.107 25.6H484.227V39.424H495.107C496.728 39.424 497.923 38.9973 498.691 38.144C499.544 37.2907 499.971 36.0107 499.971 34.304V30.72C499.971 29.0133 499.544 27.7333 498.691 26.88C497.923 26.0267 496.728 25.6 495.107 25.6ZM500.867 59.136H484.227V74.24H500.867C502.488 74.24 503.683 73.8133 504.451 72.96C505.304 72.1067 505.731 70.8267 505.731 69.12V64.128C505.731 62.4213 505.304 61.184 504.451 60.416C503.683 59.5627 502.488 59.136 500.867 59.136Z" fill="#EDEDED"/>
<path d="M347.625 96C349.246 96 350.398 95.6587 351.081 94.976C351.849 94.208 352.233 93.0133 352.233 91.392V66.176H374.505C376.126 66.176 377.278 65.8347 377.961 65.152C378.729 64.384 379.113 63.1893 379.113 61.568V46.208C379.113 44.5867 378.729 43.4347 377.961 42.752C377.278 41.984 376.126 41.6 374.505 41.6H352.233V28.288H384.873C386.494 28.288 387.646 27.9467 388.329 27.264C389.097 26.496 389.481 25.3013 389.481 23.68V8.44799C389.481 6.82666 389.097 5.67466 388.329 4.99199C387.646 4.22399 386.494 3.83999 384.873 3.83999H327.785C326.164 3.83999 324.969 4.22399 324.201 4.99199C323.518 5.67466 323.177 6.82666 323.177 8.44799V91.392C323.177 93.0133 323.518 94.208 324.201 94.976C324.969 95.6587 326.164 96 327.785 96H347.625Z" fill="#EDEDED"/>
<path fill-rule="evenodd" clip-rule="evenodd" d="M243.039 91.392V73.472H265.695V91.392C265.695 93.0133 266.079 94.208 266.847 94.976C267.7 95.6587 268.98 96 270.687 96H290.015C291.636 96 292.788 95.6587 293.471 94.976C294.239 94.208 294.623 93.0133 294.623 91.392V57.6C294.623 55.04 294.196 52.096 293.343 48.768C292.575 45.44 291.338 41.5573 289.631 37.12L278.495 8.06399C277.983 6.61332 277.172 5.54665 276.063 4.86399C275.039 4.18132 273.716 3.83999 272.095 3.83999H237.663C235.956 3.83999 234.548 4.18132 233.439 4.86399C232.415 5.54665 231.647 6.61332 231.135 8.06399L219.999 37.12C218.292 41.5573 217.012 45.44 216.159 48.768C215.391 52.096 215.007 55.04 215.007 57.6V91.392C215.007 93.0133 215.348 94.208 216.031 94.976C216.799 95.6587 217.994 96 219.615 96H238.431C240.052 96 241.204 95.6587 241.887 94.976C242.655 94.208 243.039 93.0133 243.039 91.392ZM251.359 29.056C251.018 29.3973 250.676 29.952 250.335 30.72L244.319 50.176H264.415L258.399 30.72C258.058 29.952 257.674 29.3973 257.247 29.056C256.906 28.7147 256.479 28.544 255.967 28.544H252.767C252.255 28.544 251.786 28.7147 251.359 29.056Z" fill="#EDEDED"/>
<path d="M184.427 96C186.048 96 187.2 95.6587 187.883 94.976C188.651 94.208 189.035 93.0133 189.035 91.392V76.416C189.035 74.7947 188.651 73.6427 187.883 72.96C187.2 72.192 186.048 71.808 184.427 71.808H149.099V60.8H174.059C175.68 60.8 176.832 60.4587 177.515 59.776C178.283 59.008 178.667 57.8133 178.667 56.192V42.496C178.667 40.8747 178.283 39.7227 177.515 39.04C176.832 38.272 175.68 37.888 174.059 37.888H149.099V28.032H184.427C186.048 28.032 187.2 27.6907 187.883 27.008C188.651 26.24 189.035 25.0453 189.035 23.424V8.44799C189.035 6.82666 188.651 5.67466 187.883 4.99199C187.2 4.22399 186.048 3.83999 184.427 3.83999H125.035C123.414 3.83999 122.219 4.22399 121.451 4.99199C120.768 5.67466 120.427 6.82666 120.427 8.44799V91.392C120.427 93.0133 120.768 94.208 121.451 94.976C122.219 95.6587 123.414 96 125.035 96H184.427Z" fill="#EDEDED"/>
<path d="M88.437 96C90.0583 96 91.2103 95.6587 91.893 94.976C92.661 94.208 93.045 93.0133 93.045 91.392V51.072C93.045 49.4507 92.661 48.2987 91.893 47.616C91.2103 46.848 90.0583 46.464 88.437 46.464H69.877C68.2557 46.464 67.061 46.848 66.293 47.616C65.6103 48.2987 65.269 49.4507 65.269 51.072V71.808H47.733V8.44799C47.733 6.82666 47.349 5.67466 46.581 4.99199C45.8983 4.22399 44.7463 3.83999 43.125 3.83999H23.285C21.6637 3.83999 20.469 4.22399 19.701 4.99199C19.0183 5.67466 18.677 6.82666 18.677 8.44799V91.392C18.677 93.0133 19.0183 94.208 19.701 94.976C20.469 95.6587 21.6637 96 23.285 96H88.437Z" fill="#EDEDED"/>
<path d="M307.239 250C308.86 250 310.012 249.659 310.695 248.976C311.463 248.208 311.847 247.013 311.847 245.392V230.16C311.847 228.539 311.463 227.387 310.695 226.704C310.012 225.936 308.86 225.552 307.239 225.552H281.511C278.866 225.552 276.903 225.083 275.623 224.144C274.343 223.12 273.703 221.541 273.703 219.408V188.944C273.703 186.811 274.343 185.232 275.623 184.208C276.903 183.099 278.866 182.544 281.511 182.544H307.239C308.86 182.544 310.012 182.203 310.695 181.52C311.463 180.752 311.847 179.557 311.847 177.936V162.448C311.847 160.827 311.463 159.675 310.695 158.992C310.012 158.224 308.86 157.84 307.239 157.84H276.007C265.34 157.84 257.404 160.016 252.199 164.368C247.079 168.635 244.519 175.205 244.519 184.08V223.888C244.519 232.763 247.079 239.333 252.199 243.6C257.404 247.867 265.34 250 276.007 250H307.239Z" fill="#EDEDED"/>
<path d="M417.516 225.808V162.448C417.516 160.827 417.132 159.675 416.364 158.992C415.681 158.224 414.529 157.84 412.908 157.84H393.452C391.831 157.84 390.636 158.224 389.868 158.992C389.185 159.675 388.844 160.827 388.844 162.448V220.816C388.844 222.523 388.204 223.973 386.924 225.168C385.644 226.277 382.743 226.832 378.22 226.832C373.783 226.832 370.924 226.277 369.644 225.168C368.364 223.973 367.724 222.523 367.724 220.816V162.448C367.724 160.827 367.34 159.675 366.572 158.992C365.889 158.224 364.737 157.84 363.116 157.84H343.02C341.399 157.84 340.204 158.224 339.436 158.992C338.753 159.675 338.412 160.827 338.412 162.448V225.808C338.412 229.733 338.967 233.317 340.076 236.56C341.271 239.717 343.319 242.448 346.22 244.752C349.207 246.971 353.26 248.72 358.38 250C363.5 251.28 370.028 251.92 377.964 251.92C385.9 251.92 392.428 251.28 397.548 250C402.668 248.72 406.679 246.971 409.58 244.752C412.567 242.448 414.615 239.717 415.724 236.56C416.919 233.317 417.516 229.733 417.516 225.808Z" fill="#EDEDED"/>
<path fill-rule="evenodd" clip-rule="evenodd" d="M471.622 250C473.243 250 474.395 249.659 475.078 248.976C475.846 248.208 476.23 247.013 476.23 245.392V220.304H494.15C495.942 220.304 497.179 220.773 497.862 221.712C498.63 222.565 499.014 223.931 499.014 225.808V245.392C499.014 247.013 499.355 248.208 500.038 248.976C500.806 249.659 502.001 250 503.622 250H523.462C525.083 250 526.235 249.659 526.918 248.976C527.686 248.208 528.07 247.013 528.07 245.392V218.256C528.07 212.88 526.619 208.571 523.718 205.328C520.902 202.085 517.19 200.208 512.582 199.696C515.227 198.587 517.062 196.795 518.086 194.32C519.195 191.76 519.75 188.688 519.75 185.104V179.216C519.75 172.901 517.915 167.781 514.246 163.856C510.662 159.845 504.091 157.84 494.534 157.84H451.91C450.289 157.84 449.094 158.224 448.326 158.992C447.643 159.675 447.302 160.827 447.302 162.448V245.392C447.302 247.013 447.643 248.208 448.326 248.976C449.094 249.659 450.289 250 451.91 250H471.622ZM485.83 180.88H476.23V197.264H485.83C488.049 197.264 489.542 196.709 490.31 195.6C491.078 194.405 491.462 192.955 491.462 191.248V186.896C491.462 185.189 491.078 183.781 490.31 182.672C489.542 181.477 488.049 180.88 485.83 180.88Z" fill="#EDEDED"/>
<path d="M597.929 250C606.121 250 612.564 248.08 617.257 244.24C622.036 240.315 624.425 234.725 624.425 227.472V214.032C624.425 206.864 622.59 201.744 618.921 198.672C615.252 195.6 610.43 193.637 604.457 192.784L585.385 190.224C584.276 190.139 583.422 189.712 582.825 188.944C582.228 188.176 581.929 187.237 581.929 186.128C581.929 185.019 582.228 184.123 582.825 183.44C583.422 182.672 584.276 182.288 585.385 182.288H615.209C616.83 182.288 617.982 181.947 618.665 181.264C619.433 180.496 619.817 179.301 619.817 177.68V162.448C619.817 160.827 619.433 159.675 618.665 158.992C617.982 158.224 616.83 157.84 615.209 157.84H579.369C571.092 157.84 564.606 159.803 559.913 163.728C555.22 167.568 552.873 173.115 552.873 180.368V193.808C552.873 200.976 554.665 206.096 558.249 209.168C561.918 212.24 566.74 214.203 572.713 215.056L591.913 217.744C593.022 217.829 593.833 218.213 594.345 218.896C594.942 219.579 595.241 220.645 595.241 222.096C595.241 223.12 594.942 224.016 594.345 224.784C593.833 225.467 593.022 225.808 591.913 225.808H557.481C555.86 225.808 554.665 226.192 553.897 226.96C553.214 227.643 552.873 228.795 552.873 230.416V245.392C552.873 247.013 553.214 248.208 553.897 248.976C554.665 249.659 555.86 250 557.481 250H597.929Z" fill="#EDEDED"/>
<path fill-rule="evenodd" clip-rule="evenodd" d="M729.257 225.808V182.16C729.257 178.235 728.66 174.693 727.465 171.536C726.356 168.293 724.308 165.52 721.321 163.216C718.42 160.912 714.366 159.12 709.161 157.84C704.041 156.56 697.513 155.92 689.577 155.92C681.641 155.92 675.07 156.56 669.865 157.84C664.66 159.12 660.564 160.912 657.577 163.216C654.676 165.52 652.628 168.293 651.433 171.536C650.324 174.693 649.769 178.235 649.769 182.16V225.808C649.769 229.733 650.324 233.317 651.433 236.56C652.628 239.717 654.676 242.448 657.577 244.752C660.564 246.971 664.66 248.72 669.865 250C675.07 251.28 681.641 251.92 689.577 251.92C697.513 251.92 704.041 251.28 709.161 250C714.366 248.72 718.42 246.971 721.321 244.752C724.308 242.448 726.356 239.717 727.465 236.56C728.66 233.317 729.257 229.733 729.257 225.808ZM678.825 186.768V221.2C678.825 222.907 679.465 224.357 680.745 225.552C682.025 226.661 684.969 227.216 689.577 227.216C694.185 227.216 697.129 226.661 698.409 225.552C699.689 224.357 700.329 222.907 700.329 221.2V186.768C700.329 185.147 699.689 183.781 698.409 182.672C697.129 181.477 694.185 180.88 689.577 180.88C684.969 180.88 682.025 181.477 680.745 182.672C679.465 183.781 678.825 185.147 678.825 186.768Z" fill="#EDEDED"/>
<path fill-rule="evenodd" clip-rule="evenodd" d="M740.882 71.808V28.16C740.882 24.2347 740.285 20.6933 739.09 17.536C737.981 14.2933 735.933 11.52 732.946 9.21599C730.045 6.91199 725.991 5.11999 720.786 3.83999C715.666 2.55999 709.138 1.91999 701.202 1.91999C693.266 1.91999 686.695 2.55999 681.49 3.83999C676.285 5.11999 672.189 6.91199 669.202 9.21599C666.301 11.52 664.253 14.2933 663.058 17.536C661.949 20.6933 661.394 24.2347 661.394 28.16V71.808C661.394 75.7333 661.949 79.3173 663.058 82.56C664.253 85.7173 666.301 88.448 669.202 90.752C672.189 92.9707 676.285 94.72 681.49 96C686.695 97.28 693.266 97.92 701.202 97.92C709.138 97.92 715.666 97.28 720.786 96C725.991 94.72 730.045 92.9707 732.946 90.752C735.933 88.448 737.981 85.7173 739.09 82.56C740.285 79.3173 740.882 75.7333 740.882 71.808ZM690.45 32.768V67.2C690.45 68.9067 691.09 70.3573 692.37 71.552C693.65 72.6613 696.594 73.216 701.202 73.216C705.81 73.216 708.754 72.6613 710.034 71.552C711.314 70.3573 711.954 68.9067 711.954 67.2V32.768C711.954 31.1467 711.314 29.7813 710.034 28.672C708.754 27.4773 705.81 26.88 701.202 26.88C696.594 26.88 693.65 27.4773 692.37 28.672C691.09 29.7813 690.45 31.1467 690.45 32.768Z" fill="#EDEDED"/>
<path d="M836.103 3.83999C834.482 3.83999 833.287 4.22399 832.519 4.99199C831.836 5.67466 831.495 6.82666 831.495 8.44799V55.552L824.071 39.424C823.388 37.9733 822.492 36.9493 821.383 36.352C820.274 35.7547 818.908 35.456 817.287 35.456H811.911C810.29 35.456 808.924 35.7547 807.815 36.352C806.706 36.9493 805.81 37.9733 805.127 39.424L797.703 55.552V8.44799C797.703 6.82666 797.319 5.67466 796.551 4.99199C795.868 4.22399 794.716 3.83999 793.095 3.83999H773.383C771.762 3.83999 770.567 4.22399 769.799 4.99199C769.116 5.67466 768.775 6.82666 768.775 8.44799V57.856C768.775 60.5867 768.86 63.1467 769.031 65.536C769.287 67.84 769.97 70.5707 771.079 73.728L777.479 91.392C777.906 92.7573 778.588 93.8667 779.527 94.72C780.551 95.5733 781.746 96 783.111 96H800.007C801.372 96 802.524 95.7013 803.463 95.104C804.402 94.4213 805.042 93.44 805.383 92.16L811.399 71.296C811.655 70.4427 811.954 69.888 812.295 69.632C812.722 69.2907 813.191 69.12 813.703 69.12H814.855C815.367 69.12 815.794 69.2907 816.135 69.632C816.562 69.888 816.903 70.4427 817.159 71.296L823.047 92.16C823.388 93.5253 824.114 94.5067 825.223 95.104C826.332 95.7013 827.57 96 828.935 96H845.959C847.324 96 848.391 95.5733 849.159 94.72C850.012 93.7813 850.652 92.672 851.079 91.392L857.479 73.984C858.588 70.8267 859.228 68.096 859.399 65.792C859.655 63.4027 859.783 60.8427 859.783 58.112V8.44799C859.783 6.82666 859.399 5.67466 858.631 4.99199C857.948 4.22399 856.796 3.83999 855.175 3.83999H836.103Z" fill="#EDEDED"/>
<path fill-rule="evenodd" clip-rule="evenodd" d="M782.622 250C784.243 250 785.395 249.659 786.078 248.976C786.846 248.208 787.23 247.013 787.23 245.392V220.304H805.15C806.942 220.304 808.179 220.773 808.862 221.712C809.63 222.565 810.014 223.931 810.014 225.808V245.392C810.014 247.013 810.355 248.208 811.038 248.976C811.806 249.659 813.001 250 814.622 250H834.462C836.083 250 837.235 249.659 837.918 248.976C838.686 248.208 839.07 247.013 839.07 245.392V218.256C839.07 212.88 837.619 208.571 834.718 205.328C831.902 202.085 828.19 200.208 823.582 199.696C826.227 198.587 828.062 196.795 829.086 194.32C830.195 191.76 830.75 188.688 830.75 185.104V179.216C830.75 172.901 828.915 167.781 825.246 163.856C821.662 159.845 815.091 157.84 805.534 157.84H762.91C761.289 157.84 760.094 158.224 759.326 158.992C758.643 159.675 758.302 160.827 758.302 162.448V245.392C758.302 247.013 758.643 248.208 759.326 248.976C760.094 249.659 761.289 250 762.91 250H782.622ZM796.83 180.88H787.23V197.264H796.83C799.049 197.264 800.542 196.709 801.31 195.6C802.078 194.405 802.462 192.955 802.462 191.248V186.896C802.462 185.189 802.078 183.781 801.31 182.672C800.542 181.477 799.049 180.88 796.83 180.88Z" fill="#EDEDED"/>
<path d="M953.052 96C954.673 96 955.825 95.6587 956.508 94.976C957.276 94.208 957.66 93.0133 957.66 91.392V76.416C957.66 74.7947 957.276 73.6427 956.508 72.96C955.825 72.192 954.673 71.808 953.052 71.808H917.724V60.8H942.684C944.305 60.8 945.457 60.4587 946.14 59.776C946.908 59.008 947.292 57.8133 947.292 56.192V42.496C947.292 40.8747 946.908 39.7227 946.14 39.04C945.457 38.272 944.305 37.888 942.684 37.888H917.724V28.032H953.052C954.673 28.032 955.825 27.6907 956.508 27.008C957.276 26.24 957.66 25.0453 957.66 23.424V8.44799C957.66 6.82666 957.276 5.67466 956.508 4.99199C955.825 4.22399 954.673 3.83999 953.052 3.83999H893.66C892.039 3.83999 890.844 4.22399 890.076 4.99199C889.393 5.67466 889.052 6.82666 889.052 8.44799V91.392C889.052 93.0133 889.393 94.208 890.076 94.976C890.844 95.6587 892.039 96 893.66 96H953.052Z" fill="#EDEDED"/>
<path fill-rule="evenodd" clip-rule="evenodd" d="M1009.87 96C1011.49 96 1012.65 95.6587 1013.33 94.976C1014.1 94.208 1014.48 93.0133 1014.48 91.392V66.304H1032.4C1034.19 66.304 1035.43 66.7733 1036.11 67.712C1036.88 68.5653 1037.26 69.9307 1037.26 71.808V91.392C1037.26 93.0133 1037.61 94.208 1038.29 94.976C1039.06 95.6587 1040.25 96 1041.87 96H1061.71C1063.33 96 1064.49 95.6587 1065.17 94.976C1065.94 94.208 1066.32 93.0133 1066.32 91.392V64.256C1066.32 58.88 1064.87 54.5707 1061.97 51.328C1059.15 48.0853 1055.44 46.208 1050.83 45.696C1053.48 44.5867 1055.31 42.7947 1056.34 40.32C1057.45 37.76 1058 34.688 1058 31.104V25.216C1058 18.9013 1056.17 13.7813 1052.5 9.85599C1048.91 5.84532 1042.34 3.83999 1032.78 3.83999H990.16C988.539 3.83999 987.344 4.22399 986.576 4.99199C985.893 5.67466 985.552 6.82666 985.552 8.44799V91.392C985.552 93.0133 985.893 94.208 986.576 94.976C987.344 95.6587 988.539 96 990.16 96H1009.87ZM1024.08 26.88H1014.48V43.264H1024.08C1026.3 43.264 1027.79 42.7093 1028.56 41.6C1029.33 40.4053 1029.71 38.9547 1029.71 37.248V32.896C1029.71 31.1893 1029.33 29.7813 1028.56 28.672C1027.79 27.4773 1026.3 26.88 1024.08 26.88Z" fill="#EDEDED"/>
</svg>
