<svg width="768" height="344" viewBox="0 0 768 344" fill="none" xmlns="http://www.w3.org/2000/svg">
<g clip-path="url(#clip0)">
<rect width="768" height="344"/>
<path d="M292.557 127.744C289.804 128.982 287.211 130.55 284.838 132.416C282.345 134.349 279.827 136.467 277.282 138.768C274.737 141.069 272.097 143.496 269.36 146.049C266.583 148.633 263.623 151.014 260.504 153.172C257.175 155.466 253.716 157.567 250.146 159.464C246.172 161.565 242.027 163.325 237.756 164.725C232.875 166.315 227.875 167.517 222.804 168.318C216.824 169.247 210.778 169.692 204.726 169.65C197.881 169.754 191.107 168.258 184.942 165.282C179.157 162.44 174.026 158.428 169.874 153.499C165.617 148.405 162.352 142.56 160.246 136.264C157.982 129.619 156.843 122.644 156.875 115.624C156.916 110.2 157.461 104.792 158.504 99.47C159.643 93.504 161.205 87.625 163.176 81.88C165.265 75.7676 167.748 69.7971 170.61 64.006C173.523 58.0799 176.849 52.3658 180.563 46.906C184.216 41.5211 188.306 36.4454 192.79 31.73C197.094 27.1844 201.859 23.0991 207.009 19.54C211.934 16.1352 217.289 13.3984 222.933 11.401C228.519 9.43743 234.399 8.44153 240.32 8.45603C244.362 8.48103 248.372 9.18133 252.183 10.528C256.178 11.9033 259.853 14.0728 262.988 16.906C266.318 19.962 268.986 23.6674 270.829 27.794C272.962 32.6832 274.002 37.9792 273.876 43.312C273.858 47.4336 273.214 51.5286 271.967 55.457C270.682 59.574 268.923 63.5278 266.726 67.239C264.484 71.0324 261.857 74.5845 258.886 77.839C255.983 81.053 252.726 83.929 249.177 86.411C245.826 88.761 242.196 90.685 238.371 92.139C234.793 93.518 230.994 94.234 227.159 94.251C222.226 94.251 218.543 93.588 216.11 92.261C215.012 91.762 214.082 90.956 213.433 89.939C212.784 88.922 212.444 87.739 212.454 86.533C212.454 86.101 212.439 85.587 212.413 84.989C212.387 84.391 212.372 83.77 212.372 83.12C212.373 82.102 212.427 81.085 212.534 80.073C212.626 79.088 212.844 78.119 213.183 77.189C213.472 76.376 213.961 75.6497 214.605 75.076C215.33 74.5006 216.24 74.2113 217.164 74.263C217.745 74.2519 218.324 74.3485 218.87 74.548C219.357 74.74 219.897 74.943 220.495 75.158C221.199 75.4066 221.918 75.61 222.648 75.767C223.704 75.9779 224.78 76.0731 225.857 76.051C229.483 76.0175 233.063 75.2433 236.379 73.776C239.944 72.2477 243.195 70.0716 245.966 67.358C248.868 64.5126 251.234 61.1688 252.953 57.486C254.797 53.5323 255.727 49.2142 255.675 44.852C255.687 42.5017 255.359 40.1621 254.7 37.906C254.083 35.7728 253.001 33.8028 251.532 32.137C249.965 30.4117 248.037 29.0526 245.885 28.156C243.214 27.0869 240.351 26.5764 237.475 26.656C233.526 26.6674 229.629 27.549 226.06 29.238C222.19 31.0635 218.593 33.4214 215.376 36.243C211.781 39.3893 208.527 42.9049 205.667 46.732C202.547 50.8648 199.71 55.204 197.176 59.72C194.551 64.3855 192.205 69.2019 190.148 74.144C188.103 79.028 186.326 84.019 184.826 89.097C183.414 93.848 182.287 98.679 181.452 103.564C180.703 107.824 180.309 112.139 180.274 116.464C180.179 121.576 180.878 126.672 182.346 131.57C183.537 135.519 185.544 139.174 188.236 142.298C190.782 145.16 193.989 147.356 197.579 148.693C201.56 150.145 205.773 150.857 210.01 150.793C215.439 150.837 220.845 150.086 226.057 148.565C230.967 147.095 235.716 145.135 240.234 142.715C244.757 140.29 249.113 137.567 253.275 134.564C257.47 131.535 261.668 128.492 265.868 125.435C270.068 122.378 274.347 119.459 278.704 116.676C283.083 113.891 287.723 111.539 292.557 109.652V127.744Z" fill="#F1797A"/>
<path d="M300.116 154.051C298.573 154.006 297.055 153.646 295.657 152.992C294.258 152.339 293.008 151.406 291.983 150.251C289.189 147.282 286.966 143.825 285.425 140.051C283.417 135.287 281.952 130.312 281.059 125.22C279.987 119.377 279.458 113.448 279.481 107.508C279.671 100.36 280.453 93.239 281.821 86.22L284.162 72.91C284.162 72.91 285.346 68.479 287.711 59.61C289.541 52.3308 291.921 45.2013 294.832 38.283C297.107 33.1263 299.696 28.1142 302.586 23.275C305.132 18.9614 308.071 14.8924 311.366 11.12C314.123 7.92185 317.362 5.17295 320.966 2.97205C324.025 1.07615 327.543 0.0515461 331.142 0.00904606C333.303 -0.0744539 335.447 0.421347 337.352 1.44505C338.94 2.35755 340.266 3.66385 341.203 5.23805C342.167 6.88775 342.834 8.69385 343.173 10.574C343.553 12.5773 343.743 14.612 343.742 16.651C343.725 21.9176 343.115 27.1656 341.925 32.296C340.672 37.7425 339.035 43.0932 337.025 48.308C334.968 53.6727 332.589 59.0513 329.887 64.444C327.185 69.8367 324.368 75.1883 321.437 80.499C318.51 85.81 315.568 91.0391 312.611 96.1861C309.654 101.333 306.927 106.365 304.428 111.28C304.096 111.97 303.81 112.681 303.572 113.409C303.27 114.283 302.985 115.225 302.716 116.235C302.447 117.245 302.176 118.323 301.901 119.47C301.628 120.619 301.411 121.74 301.249 122.831V123.98C301.245 125.371 301.395 126.757 301.696 128.115C301.961 129.346 302.329 130.553 302.796 131.722C303.141 132.627 303.607 133.481 304.18 134.261C304.67 134.89 305.132 135.205 305.567 135.204C306.801 135.173 308.023 134.95 309.189 134.545C310.67 134.059 312.116 133.471 313.516 132.784C315.039 132.047 316.606 131.2 318.216 130.245C319.826 129.29 321.379 128.32 322.876 127.335C326.369 125.042 330.03 122.393 333.859 119.387L341.032 136.512C336.066 139.811 331.156 142.747 326.303 145.32C324.185 146.403 321.996 147.471 319.737 148.526C317.478 149.581 315.205 150.521 312.918 151.346C310.73 152.143 308.494 152.802 306.224 153.32C304.221 153.79 302.173 154.036 300.116 154.054V154.051ZM300.194 89.649C302.637 85.276 305.232 80.36 307.977 74.899C310.722 69.4383 313.316 63.812 315.759 58.02C318.205 52.2313 320.324 46.4553 322.117 40.692C323.799 35.4547 324.946 30.0605 325.541 24.592C325.541 23.0073 325.502 21.655 325.425 20.535C325.348 19.415 325.104 18.8553 324.694 18.856C323.205 18.856 321.602 19.885 319.884 21.943C317.841 24.5145 316.109 27.3186 314.725 30.297C312.257 35.8507 310.199 41.5773 308.566 47.431C306.178 55.341 304.985 59.297 304.986 59.299C304.986 59.299 304.257 62.972 302.798 70.314C301.47 76.687 300.601 83.148 300.198 89.646" fill="#F1797A"/>
<path d="M386.803 78.331C386.803 79.798 386.755 81.789 386.658 84.305C386.531 87.076 386.203 89.834 385.677 92.558L383.666 103.371C382.877 107.598 382.226 111.096 381.713 113.865C381.2 116.634 380.75 119.056 380.365 121.131C380.049 122.622 379.855 124.136 379.785 125.658C379.785 127.181 379.808 128.581 379.854 129.858C379.882 130.984 380.023 132.104 380.275 133.201C380.442 134.017 380.818 134.775 381.366 135.401C381.65 135.672 381.988 135.881 382.357 136.014C382.726 136.148 383.119 136.203 383.511 136.176C384.999 136.116 386.467 135.812 387.857 135.276C389.727 134.608 391.546 133.806 393.301 132.876C395.222 131.868 397.186 130.725 399.192 129.448C401.198 128.171 403.107 126.825 404.92 125.412C406.733 123.999 408.386 122.599 409.879 121.212C411.186 120.018 412.395 118.72 413.493 117.331C413.493 119.131 413.507 120.764 413.534 122.231C413.557 123.699 413.575 125.097 413.575 126.431C413.575 127.765 413.586 129.139 413.616 130.551C413.646 131.963 413.657 133.543 413.657 135.281C412.262 136.63 410.783 137.888 409.229 139.05C407.464 140.383 405.513 141.719 403.376 143.057C401.239 144.395 398.964 145.678 396.552 146.905C394.188 148.115 391.762 149.198 389.283 150.151C386.952 151.055 384.565 151.805 382.136 152.397C380.021 152.931 377.85 153.213 375.668 153.238C373.863 153.29 372.076 152.877 370.477 152.038C369.004 151.206 367.736 150.056 366.763 148.672C365.647 147.082 364.76 145.344 364.128 143.507C363.355 141.321 362.728 139.085 362.251 136.816C360.352 139.268 358.286 141.586 356.068 143.754C354.016 145.768 351.798 147.604 349.437 149.244C347.312 150.728 345.018 151.952 342.603 152.892C340.467 153.741 338.193 154.19 335.895 154.215C334.182 154.228 332.481 153.925 330.878 153.321C329.258 152.687 327.824 151.655 326.708 150.321C325.376 148.685 324.398 146.79 323.836 144.756C323.071 141.965 322.717 139.078 322.783 136.185C322.838 129.091 323.38 123.65 324.409 119.861C326.03 114.333 327.543 106.094 328.947 95.144C329.095 94.344 329.295 93.251 329.547 91.865C329.837 90.336 330.222 88.827 330.701 87.347C331.239 85.659 331.877 84.004 332.611 82.391C333.33 80.778 334.23 79.251 335.293 77.841C336.286 76.521 337.511 75.392 338.908 74.51C340.314 73.6378 341.929 73.1613 343.583 73.131C346.45 73.2697 348.508 73.7363 349.758 74.531C350.303 74.8122 350.764 75.2335 351.092 75.7516C351.421 76.27 351.605 76.866 351.627 77.479C351.137 81.128 350.589 84.636 349.983 88.005C349.377 91.374 348.766 94.769 348.149 98.19C347.534 101.608 346.851 105.411 346.1 109.6C345.349 113.789 344.744 117.145 344.283 119.669C343.827 122.196 343.46 124.239 343.183 125.797C342.906 127.355 342.767 128.162 342.766 128.218C342.763 129.189 342.858 130.159 343.05 131.111C343.219 131.971 343.507 132.803 343.906 133.583C344.257 134.273 344.759 134.875 345.374 135.345C345.988 135.796 346.734 136.032 347.495 136.014C348.776 135.994 350.034 135.668 351.163 135.063C352.496 134.367 353.687 133.427 354.673 132.291C355.917 131.042 356.936 129.587 357.683 127.99C358.611 126.107 359.271 124.103 359.642 122.037L368.599 77.76C368.86 76.459 369.92 75.3623 371.777 74.469C373.754 73.5494 375.915 73.0918 378.095 73.131C380.307 73.02 382.507 73.5255 384.449 74.591C385.142 74.9442 385.727 75.4782 386.141 76.1366C386.556 76.795 386.784 77.553 386.803 78.331Z" fill="#F1797A"/>
<path d="M459.194 130.594C460.711 128.281 462.031 125.844 463.141 123.31C464.122 121.02 464.91 118.652 465.497 116.23C466.071 113.836 466.462 111.402 466.668 108.949C466.889 106.464 466.997 103.831 466.993 101.049C467.009 97.864 466.543 94.695 465.611 91.649C464.764 88.783 463.416 86.089 461.63 83.692C459.9 81.392 449.506 71.7221 436.693 77.0331C424.84 81.9431 422.079 89.049 422.079 89.049C421.304 80.918 421.895 72.7148 423.829 64.7791C424.686 61.3371 425.329 57.6091 426.138 53.6861C426.947 49.7631 427.867 45.919 428.889 42.149C429.911 38.379 430.955 34.778 432.034 31.335C432.977 28.2451 434.078 25.2057 435.334 22.229C436.46 19.603 440.349 9.28505 440.534 8.45205C441.729 3.17105 438.173 1.92405 437.272 1.45205C436.41 1.00505 433.358 1.71905 432.509 2.51705C428.977 5.98325 426.015 9.98645 423.734 14.378C420.843 19.794 418.398 25.4363 416.423 31.249C414.119 37.9806 412.355 44.8851 411.148 51.897C409.825 59.349 408.725 65.5604 407.848 70.5311C407.024 77.0321 406.365 82.9621 405.872 88.3221C404.886 93.0891 403.844 100.589 402.746 110.822C401.981 117.755 401.407 123.632 401.025 128.452C400.538 133.979 400.213 138.937 400.05 143.326C402.926 145.439 405.577 148.143 409.002 149.501C409.002 149.501 437.845 163.167 459.195 130.594H459.194ZM448.388 111.318C448.114 113.848 447.707 116.362 447.17 118.849C446.647 121.339 445.941 123.787 445.058 126.173C444.198 128.517 437.183 142.681 417.597 137.394C417.806 135.487 418.042 133.444 418.305 131.263C418.505 129.379 418.757 127.229 419.048 124.812C419.802 118.412 420.51 110.759 422.948 105.641C424.018 103.26 425.473 101.071 427.254 99.162C428.743 97.578 430.54 96.3151 432.534 95.4491C434.334 94.6701 436.273 94.262 438.234 94.249C440.018 94.193 441.796 94.486 443.469 95.109C444.719 95.589 445.837 96.361 446.73 97.36C447.514 98.297 448.071 99.403 448.355 100.592C448.653 101.866 448.801 103.171 448.797 104.48C448.788 106.764 448.653 109.045 448.39 111.314" fill="#F1797A"/>
<path d="M532.654 138.974C530.553 140.71 528.365 142.338 526.097 143.849C525.19 144.449 524.238 145.038 523.24 145.615C522.242 146.192 521.258 146.707 520.289 147.158C519.373 147.584 518.431 147.949 517.467 148.251C516.656 148.516 515.81 148.658 514.957 148.673C514.285 148.64 513.619 148.54 512.967 148.373C511.951 148.117 510.981 147.706 510.09 147.154C508.921 146.431 507.87 145.534 506.972 144.493C505.807 143.12 504.891 141.555 504.264 139.867C503.097 141.068 501.866 142.205 500.577 143.274C499.313 144.325 497.961 145.266 496.536 146.084C495.193 146.858 493.778 147.499 492.311 147.999C490.927 148.472 489.474 148.716 488.011 148.72C486.174 148.768 484.357 148.331 482.742 147.453C481.272 146.621 480.007 145.469 479.042 144.082C478.036 142.633 477.292 141.018 476.842 139.312C476.353 137.512 476.107 135.654 476.111 133.788C476.117 131.712 476.377 129.645 476.884 127.632C477.405 125.543 478.158 123.519 479.131 121.598C480.118 119.649 481.211 117.612 482.411 115.488C483.665 113.299 485.28 111.338 487.189 109.688C489.001 108.053 491.065 106.721 493.301 105.743C495.435 104.845 497.695 104.283 500.001 104.079C500.039 100.468 500.472 96.8731 501.292 93.3561C502.061 90.2651 502.887 86.9391 503.771 83.3791C504.592 79.9971 505.738 76.7021 507.194 73.5411C508.443 70.7933 509.982 68.1874 511.787 65.7681C513.255 63.7668 515.056 62.0317 517.11 60.6381C518.831 59.4561 520.864 58.8122 522.952 58.7881C524.293 58.7485 525.61 59.1524 526.699 59.9371C527.762 60.7428 528.62 61.7872 529.205 62.9861C529.884 64.3791 530.35 65.8665 530.587 67.3981C530.872 69.1114 531.013 70.8454 531.009 72.5821C531.009 73.6954 530.999 74.8401 530.979 76.0161C530.927 80.2701 530.226 84.4911 528.901 88.5341C527.608 92.4011 526.329 96.2191 525.065 99.9881C523.778 103.814 522.25 107.555 520.49 111.188C517.761 116.838 516.024 120.675 515.277 122.698C515.114 123.139 514.952 123.676 514.79 124.307C514.628 124.938 514.474 125.625 514.327 126.368C514.182 127.109 514.059 127.868 513.962 128.642C513.867 129.388 513.819 130.138 513.817 130.89C513.814 131.761 513.868 132.632 513.977 133.496C514.066 134.247 514.242 134.986 514.502 135.696C514.703 136.279 515.039 136.807 515.483 137.236C515.899 137.617 516.447 137.821 517.011 137.804C517.674 137.792 518.331 137.672 518.955 137.449C519.721 137.186 520.465 136.862 521.18 136.48C521.96 136.072 522.749 135.608 523.546 135.088C524.343 134.568 525.116 134.041 525.865 133.506C527.581 132.246 529.377 130.813 531.252 129.206L532.654 138.974ZM500.186 111.311C498.135 112.312 496.274 113.662 494.686 115.301C492.926 117.195 491.558 119.418 490.658 121.842C489.581 124.55 488.761 126.88 488.199 128.833C487.673 130.549 487.39 132.329 487.356 134.123C487.357 134.619 487.428 135.112 487.567 135.588C487.712 136.085 487.977 136.539 488.34 136.908C488.79 137.345 489.335 137.672 489.932 137.862C490.795 138.132 491.698 138.255 492.602 138.228C493.178 138.226 493.746 138.098 494.267 137.853C494.83 137.595 495.357 137.267 495.838 136.877C496.352 136.462 496.831 136.004 497.267 135.508C497.716 135.002 498.131 134.468 498.51 133.908C499.435 132.544 500.233 131.098 500.895 129.588C500.77 128.894 500.691 128.192 500.659 127.488C500.592 126.528 500.545 125.064 500.516 123.095C500.487 121.126 500.456 119.513 500.422 118.255C500.391 116.995 500.367 115.846 500.35 114.807C500.334 113.767 500.31 112.918 500.279 112.256C500.295 111.938 500.264 111.62 500.186 111.312V111.311ZM522.286 79.3561C522.481 77.1701 522.578 75.4368 522.577 74.1561C522.651 72.9668 522.498 71.7742 522.126 70.6421C522.035 70.3635 521.861 70.1197 521.626 69.9438C521.392 69.7679 521.109 69.6685 520.816 69.6591C520.231 69.7122 519.67 69.9149 519.186 70.2476C518.701 70.5804 518.311 71.032 518.052 71.5591C517.126 73.0702 516.453 74.7227 516.061 76.4511L514.425 82.9621C513.85 85.2291 513.418 87.5291 513.132 89.8501C512.861 92.0971 512.643 94.1231 512.48 95.9271C512.317 97.7311 512.201 99.0121 512.132 99.7701C511.999 101.321 511.888 102.817 511.799 104.257C511.71 105.697 511.651 107.01 511.622 108.197C511.587 109.384 511.569 110.421 511.57 111.307V113.823C513.303 109.662 514.903 105.517 516.37 101.39C516.979 99.6301 517.581 97.7951 518.177 95.8841C518.773 93.9731 519.363 92.0781 519.948 90.1981C520.534 88.3171 521.03 86.4551 521.436 84.6121C521.822 82.8801 522.105 81.1281 522.286 79.3631" fill="#F1797A"/>
<path d="M545.737 148.72C543.095 148.779 540.475 148.224 538.084 147.099C535.96 146.069 534.092 144.578 532.616 142.736C531.128 140.852 530.015 138.7 529.337 136.397C528.6 133.945 528.232 131.398 528.243 128.838C528.299 126.747 528.627 124.673 529.221 122.667C529.873 120.278 530.548 118.159 531.246 116.31C531.944 114.462 532.826 112.689 533.879 111.017C534.903 109.375 536.148 107.882 537.579 106.579C538.983 105.306 540.588 104.275 542.33 103.528C544.181 102.754 546.172 102.368 548.178 102.395C549.841 102.38 551.493 102.666 553.054 103.238C554.499 103.765 555.829 104.567 556.969 105.6C558.087 106.625 558.973 107.877 559.569 109.272C560.212 110.796 560.532 112.436 560.508 114.09C560.408 116.336 559.755 118.523 558.608 120.456C557.437 122.679 555.945 124.716 554.179 126.503C552.38 128.264 550.351 129.774 548.147 130.991C545.759 132.327 543.212 133.358 540.567 134.06C540.969 134.786 541.433 135.476 541.954 136.122C542.348 136.617 542.816 137.05 543.341 137.403C543.793 137.702 544.295 137.919 544.822 138.045C545.37 138.171 545.93 138.232 546.492 138.228C548.515 138.2 550.519 137.828 552.417 137.128C554.513 136.386 556.543 135.467 558.483 134.38C560.416 133.301 562.278 132.098 564.057 130.78C565.614 129.642 567.1 128.411 568.507 127.093L574.549 133.23C571.879 136.088 568.946 138.688 565.79 140.997C564.445 141.963 563.001 142.913 561.456 143.846C559.892 144.787 558.264 145.617 556.584 146.33C554.871 147.056 553.101 147.637 551.291 148.066C549.471 148.499 547.607 148.718 545.737 148.717V148.72ZM539.484 126.408C540.759 126.376 542.014 126.088 543.175 125.561C544.502 124.999 545.751 124.268 546.89 123.385C548.17 122.356 549.301 121.154 550.251 119.814C551.159 118.771 551.733 117.479 551.897 116.106C551.943 114.928 551.675 113.758 551.121 112.717C550.956 112.343 550.692 112.021 550.357 111.787C550.022 111.553 549.629 111.415 549.221 111.389C548.028 111.355 546.843 111.606 545.766 112.121C544.844 112.582 544.027 113.229 543.366 114.021C542.71 114.819 542.184 115.716 541.809 116.678C541.418 117.672 540.964 118.901 540.445 120.365C539.998 121.528 539.706 122.744 539.575 123.983C539.508 124.93 539.477 125.739 539.481 126.411" fill="#F1797A"/>
<path d="M575.741 148.719C574.851 148.693 573.976 148.486 573.17 148.11C572.363 147.733 571.642 147.196 571.051 146.53C569.441 144.819 568.159 142.826 567.271 140.651C566.112 137.904 565.266 135.035 564.751 132.099C564.133 128.73 563.828 125.312 563.841 121.887C563.952 117.767 564.405 113.664 565.194 109.619C566.094 104.504 566.544 101.946 566.543 101.945C566.543 101.945 567.226 99.391 568.59 94.28C569.643 90.082 571.013 85.97 572.69 81.98C574.001 79.007 575.494 76.1177 577.16 73.328C578.629 70.8403 580.325 68.4939 582.226 66.319C583.817 64.4747 585.685 62.8891 587.763 61.619C589.527 60.526 591.557 59.9355 593.632 59.911C594.877 59.8635 596.113 60.1493 597.211 60.739C598.127 61.2651 598.892 62.0179 599.433 62.925C599.987 63.8762 600.37 64.9174 600.564 66.001C600.784 67.1546 600.894 68.3266 600.892 69.501C600.883 72.5372 600.533 75.5628 599.849 78.521C599.125 81.66 598.181 84.745 597.025 87.752C595.834 90.845 594.462 93.945 592.91 97.052C591.358 100.159 589.734 103.248 588.038 106.319C586.349 109.378 584.653 112.391 582.951 115.358C581.249 118.325 579.676 121.225 578.233 124.058C578.041 124.456 577.876 124.866 577.739 125.286C577.565 125.789 577.4 126.332 577.245 126.915C577.09 127.498 576.933 128.12 576.775 128.781C576.618 129.443 576.492 130.089 576.398 130.718V131.38C576.394 132.182 576.479 132.982 576.651 133.766C576.804 134.476 577.016 135.171 577.286 135.845C577.485 136.367 577.754 136.859 578.086 137.309C578.369 137.672 578.635 137.852 578.886 137.852C579.597 137.834 580.3 137.707 580.972 137.475C581.826 137.194 582.659 136.855 583.466 136.459C584.344 136.034 585.247 135.546 586.174 134.995C587.101 134.444 587.997 133.886 588.861 133.319C590.875 131.998 592.985 130.47 595.19 128.737L599.332 138.61C596.465 140.512 593.635 142.204 590.841 143.687C589.617 144.308 588.354 144.924 587.051 145.535C585.746 146.145 584.438 146.687 583.118 147.162C581.856 147.621 580.567 148 579.258 148.298C578.105 148.568 576.925 148.709 575.741 148.719ZM575.786 111.588C577.196 109.069 578.692 106.236 580.273 103.088C581.854 99.94 583.351 96.696 584.762 93.357C586.171 90.019 587.392 86.689 588.426 83.366C589.398 80.348 590.059 77.238 590.399 74.085C590.399 73.171 590.38 72.392 590.333 71.746C590.286 71.1 590.152 70.777 589.911 70.777C589.054 70.777 588.13 71.3703 587.137 72.557C585.96 74.0403 584.962 75.6571 584.163 77.374C582.74 80.576 581.554 83.877 580.612 87.252C579.238 91.813 578.551 94.093 578.551 94.094C578.551 94.094 578.132 96.212 577.29 100.444C576.524 104.118 576.023 107.842 575.79 111.588" fill="#F1797A"/>
<path d="M179.437 288.617C175.796 290.253 172.368 292.328 169.23 294.795C165.933 297.35 162.602 300.15 159.237 303.195C155.872 306.24 152.38 309.449 148.761 312.822C145.089 316.24 141.174 319.388 137.049 322.243C132.646 325.277 128.071 328.056 123.349 330.566C118.094 333.344 112.613 335.671 106.964 337.523C100.509 339.626 93.8979 341.215 87.1929 342.274C79.2849 343.501 71.2899 344.09 63.2869 344.035C54.2349 344.173 45.2759 342.195 37.1239 338.259C29.4719 334.502 22.6849 329.195 17.1919 322.676C11.5629 315.94 7.24489 308.211 4.45989 299.886C1.46489 291.098 -0.0421052 281.871 0.000894843 272.586C0.0528948 265.412 0.771882 258.259 2.14988 251.219C3.65588 243.329 5.72089 235.555 8.32789 227.957C11.0909 219.874 14.3749 211.978 18.1589 204.319C22.0109 196.482 26.4099 188.926 31.3209 181.705C36.1529 174.584 41.5609 167.871 47.4909 161.635C53.1819 155.624 59.4819 150.222 66.2909 145.515C72.8039 141.012 79.8849 137.392 87.3499 134.75C94.7369 132.153 102.513 130.835 110.343 130.855C115.689 130.888 120.991 131.814 126.031 133.595C131.315 135.414 136.176 138.283 140.321 142.03C144.724 146.072 148.252 150.973 150.69 156.43C153.376 162.23 154.719 169.071 154.719 176.953C154.694 182.404 153.843 187.82 152.194 193.016C150.494 198.46 148.169 203.688 145.264 208.596C142.299 213.614 138.824 218.312 134.895 222.617C131.056 226.867 126.748 230.67 122.055 233.953C117.624 237.061 112.824 239.605 107.765 241.528C103.033 243.352 98.0089 244.299 92.9379 244.322C86.4179 244.322 81.5469 243.444 78.3249 241.689C75.1029 239.934 73.4909 237.409 73.4899 234.114C73.4899 233.542 73.4709 232.863 73.4369 232.073C73.4029 231.283 73.3839 230.461 73.3839 229.602C73.3849 228.256 73.4569 226.911 73.5979 225.573C73.7199 224.27 74.0089 222.988 74.4579 221.758C74.8399 220.683 75.4869 219.723 76.3389 218.964C77.2969 218.203 78.5009 217.82 79.7229 217.889C80.4919 217.874 81.2569 218.002 81.9799 218.266C82.6239 218.52 83.3379 218.787 84.1289 219.071C85.0599 219.4 86.0119 219.669 86.9769 219.877C88.3739 220.156 89.7969 220.282 91.2209 220.252C96.0159 220.208 100.75 219.184 105.135 217.244C109.851 215.224 114.15 212.346 117.815 208.756C121.652 204.993 124.782 200.571 127.055 195.701C129.494 190.472 130.724 184.762 130.655 178.993C130.671 175.884 130.237 172.79 129.365 169.806C128.548 166.985 127.117 164.38 125.175 162.178C123.102 159.897 120.553 158.099 117.708 156.913C114.176 155.498 110.391 154.821 106.587 154.925C101.364 154.939 96.2079 156.105 91.4869 158.34C86.3689 160.754 81.6129 163.872 77.3579 167.603C72.6029 171.764 68.2999 176.414 64.5179 181.475C60.3919 186.94 56.6399 192.679 53.2899 198.651C49.8189 204.821 46.7149 211.19 43.9949 217.726C41.2909 224.184 38.9409 230.785 36.9579 237.5C35.0909 243.782 33.6019 250.169 32.4989 256.629C31.5079 262.266 30.9869 267.975 30.9409 273.698C30.8159 280.459 31.7409 287.198 33.6809 293.676C35.2559 298.898 37.9099 303.731 41.4709 307.862C44.8379 311.648 49.0799 314.551 53.8269 316.32C59.0909 318.243 64.6629 319.185 70.2669 319.102C77.4469 319.16 84.5959 318.166 91.4879 316.154C97.9809 314.21 104.262 311.618 110.237 308.418C116.218 305.205 121.979 301.599 127.483 297.623C133.032 293.616 138.583 289.592 144.137 285.55C149.691 281.508 155.351 277.653 161.117 273.986C166.908 270.299 173.043 267.184 179.437 264.686V288.617Z" fill="#35837E"/>
<path d="M246.269 223.267C246.269 225.205 246.205 227.838 246.077 231.167C245.908 234.831 245.474 238.479 244.777 242.08L242.118 256.38C241.078 261.971 240.217 266.597 239.536 270.26C238.855 273.923 238.26 277.124 237.751 279.865C237.333 281.836 237.076 283.839 236.984 285.852C236.984 287.866 237.015 289.718 237.076 291.408C237.113 292.896 237.299 294.377 237.632 295.828C237.851 296.91 238.35 297.917 239.078 298.747C239.454 299.106 239.9 299.382 240.388 299.558C240.876 299.735 241.396 299.808 241.914 299.772C243.882 299.695 245.825 299.294 247.663 298.586C250.137 297.701 252.543 296.637 254.863 295.405C257.404 294.072 260 292.561 262.653 290.873C265.306 289.185 267.831 287.406 270.228 285.536C272.628 283.669 274.813 281.817 276.782 279.978C278.512 278.403 280.111 276.69 281.563 274.856C281.563 277.231 281.581 279.389 281.617 281.33C281.653 283.271 281.671 285.122 281.67 286.883C281.67 288.648 281.688 290.465 281.724 292.332C281.76 294.199 281.778 296.284 281.777 298.587C279.931 300.37 277.975 302.035 275.921 303.572C273.592 305.337 271.013 307.104 268.184 308.872C265.355 310.64 262.347 312.336 259.158 313.961C256.031 315.558 252.821 316.988 249.543 318.247C246.461 319.442 243.304 320.434 240.092 321.217C237.295 321.923 234.424 322.297 231.539 322.33C229.152 322.401 226.788 321.856 224.673 320.747C222.725 319.646 221.047 318.126 219.761 316.295C218.286 314.193 217.113 311.894 216.277 309.465C215.256 306.573 214.427 303.616 213.795 300.615C211.285 303.859 208.552 306.925 205.618 309.791C202.904 312.452 199.97 314.879 196.847 317.047C194.037 319.009 191.004 320.628 187.81 321.87C184.985 322.994 181.978 323.587 178.938 323.62C176.672 323.637 174.423 323.237 172.302 322.438C170.16 321.598 168.263 320.232 166.788 318.466C165.025 316.303 163.731 313.797 162.988 311.107C161.979 307.418 161.511 303.602 161.599 299.778C161.672 290.396 162.388 283.2 163.748 278.189C165.893 270.879 167.893 259.984 169.748 245.503C169.944 244.444 170.211 242.998 170.548 241.166C170.932 239.145 171.443 237.15 172.076 235.192C172.787 232.959 173.63 230.77 174.601 228.637C175.552 226.504 176.742 224.486 178.147 222.62C179.461 220.875 181.081 219.383 182.929 218.217C184.786 217.063 186.921 216.432 189.107 216.39C192.903 216.575 195.625 217.19 197.273 218.236C197.994 218.608 198.603 219.166 199.037 219.851C199.471 220.536 199.715 221.325 199.744 222.136C199.099 226.967 198.375 231.611 197.572 236.066C196.769 240.521 195.96 245.011 195.147 249.535C194.333 254.056 193.43 259.085 192.437 264.624C191.444 270.163 190.647 274.601 190.044 277.938C189.444 281.28 188.958 283.98 188.586 286.038C188.214 288.096 188.03 289.163 188.033 289.238C188.029 290.523 188.155 291.805 188.409 293.064C188.633 294.201 189.014 295.301 189.541 296.333C190.006 297.245 190.669 298.041 191.483 298.662C192.294 299.26 193.281 299.572 194.288 299.549C195.982 299.521 197.645 299.09 199.138 298.29C200.9 297.369 202.474 296.126 203.778 294.625C205.424 292.976 206.773 291.055 207.765 288.947C208.992 286.456 209.864 283.805 210.355 281.072L222.201 222.514C222.546 220.795 223.946 219.345 226.401 218.163C229.014 216.946 231.869 216.34 234.751 216.39C237.676 216.245 240.584 216.915 243.151 218.324C245.227 219.614 246.264 221.262 246.263 223.267" fill="#35837E"/>
<path d="M303.265 323.407C297.24 323.538 291.265 322.288 285.797 319.754C280.941 317.442 276.642 314.106 273.197 309.976C269.747 305.786 267.138 300.97 265.514 295.792C263.778 290.375 262.904 284.72 262.923 279.032C263.046 273.985 263.771 268.971 265.084 264.096C266.326 258.935 267.896 253.858 269.784 248.896C271.473 244.569 273.571 240.414 276.051 236.486C278.445 232.653 281.351 229.165 284.688 226.117C287.932 223.17 291.637 220.774 295.656 219.026C299.854 217.238 304.378 216.342 308.941 216.394C313.035 216.354 317.109 216.987 320.998 218.266C324.459 219.392 327.677 221.16 330.484 223.477C333.073 225.649 335.176 228.34 336.658 231.377C338.148 234.439 338.911 237.803 338.888 241.208C338.888 243.646 338.535 246.071 337.84 248.408C336.865 251.354 335.497 254.156 333.773 256.736C331.762 259.925 329.806 262.091 327.905 263.236C325.955 264.397 323.72 264.992 321.451 264.955C317.828 264.955 315.489 264.06 314.432 262.27C312.699 259.476 312.151 257.005 312.79 254.856C313.005 253.712 313.647 251.061 314.716 246.904C314.888 245.622 314.924 244.326 314.824 243.036C314.859 241.584 314.677 240.135 314.286 238.736C314.163 238.217 313.858 237.76 313.428 237.445C312.998 237.13 312.47 236.979 311.938 237.018C309.286 236.941 306.673 237.673 304.447 239.118C302.327 240.566 300.523 242.431 299.147 244.598C297.338 247.608 295.884 250.817 294.814 254.161C293.598 257.556 292.579 261.018 291.763 264.53C291.18 267.165 290.806 269.841 290.643 272.535C290.497 275.079 290.425 277.21 290.428 278.928C290.438 281.629 290.67 284.324 291.122 286.987C291.557 289.7 292.501 292.305 293.906 294.666C295.267 296.966 297.109 298.944 299.306 300.466C301.851 302.103 304.841 302.91 307.864 302.776C311.858 302.629 315.76 301.543 319.256 299.607C323.667 297.331 327.857 294.651 331.773 291.602C336.008 288.339 340.012 284.785 343.754 280.966C347.203 277.486 350.466 273.828 353.531 270.006L360.946 282.466C355.814 289.85 349.985 296.723 343.539 302.992C340.794 305.654 337.906 308.165 334.889 310.514C331.803 312.93 328.534 315.104 325.111 317.014C321.728 318.904 318.164 320.452 314.473 321.634C310.852 322.805 307.07 323.403 303.264 323.407" fill="#35837E"/>
<path d="M384.28 323.407C378.255 323.538 372.28 322.288 366.812 319.754C361.956 317.442 357.657 314.106 354.212 309.976C350.763 305.786 348.154 300.97 346.53 295.792C344.794 290.376 343.919 284.72 343.938 279.032C344.061 273.985 344.786 268.971 346.099 264.096C347.34 258.934 348.91 253.857 350.799 248.896C352.488 244.569 354.587 240.414 357.066 236.486C359.46 232.653 362.366 229.165 365.703 226.117C368.947 223.17 372.652 220.774 376.671 219.026C380.869 217.238 385.393 216.342 389.956 216.394C394.05 216.354 398.123 216.987 402.013 218.266C405.474 219.392 408.692 221.16 411.499 223.477C414.088 225.649 416.191 228.34 417.673 231.377C419.163 234.439 419.926 237.803 419.903 241.208C419.903 243.646 419.55 246.071 418.855 248.408C417.88 251.354 416.512 254.156 414.788 256.736C412.777 259.925 410.821 262.091 408.921 263.236C406.97 264.397 404.735 264.992 402.466 264.955C398.843 264.955 396.504 264.06 395.448 262.27C393.715 259.476 393.167 257.005 393.805 254.856C394.02 253.712 394.662 251.061 395.731 246.904C395.903 245.622 395.939 244.326 395.839 243.036C395.874 241.584 395.693 240.135 395.302 238.736C395.178 238.217 394.874 237.76 394.444 237.445C394.013 237.13 393.485 236.979 392.953 237.018C390.301 236.941 387.688 237.673 385.462 239.118C383.342 240.566 381.538 242.431 380.162 244.598C378.353 247.608 376.899 250.817 375.829 254.161C374.613 257.555 373.594 261.018 372.779 264.53C372.195 267.165 371.82 269.841 371.658 272.535C371.513 275.079 371.441 277.21 371.443 278.928C371.454 281.629 371.688 284.324 372.143 286.987C372.576 289.699 373.518 292.305 374.921 294.666C376.282 296.966 378.124 298.944 380.321 300.466C382.866 302.103 385.856 302.91 388.879 302.776C392.872 302.629 396.775 301.543 400.271 299.607C404.682 297.331 408.872 294.651 412.788 291.602C417.023 288.338 421.026 284.785 424.769 280.966C428.218 277.486 431.481 273.828 434.546 270.006L441.961 282.466C436.829 289.85 431 296.723 424.554 302.992C421.809 305.654 418.921 308.165 415.904 310.514C412.818 312.931 409.549 315.104 406.126 317.014C402.743 318.904 399.179 320.452 395.488 321.634C391.867 322.805 388.085 323.403 384.279 323.407" fill="#35837E"/>
<path d="M497.165 300.522C494.123 303.252 490.909 305.782 487.541 308.097C483.588 310.859 479.445 313.336 475.141 315.511C470.76 317.739 466.213 319.625 461.541 321.152C457.3 322.593 452.858 323.354 448.379 323.409C445.175 323.5 441.983 322.971 438.979 321.851C436.594 320.928 434.473 319.434 432.801 317.5C431.163 315.517 430.005 313.182 429.417 310.677C428.71 307.776 428.367 304.798 428.396 301.812C428.466 296.513 428.967 291.229 429.896 286.012C431.963 273.568 433.291 266.576 433.88 265.037C434.854 261.978 436.806 255.201 439.735 244.706C442.452 236.148 444.132 230.579 444.774 227.998C445.186 226.084 446.226 224.363 447.729 223.109C449.229 221.793 450.92 220.714 452.745 219.909C454.606 219.077 456.555 218.458 458.555 218.062C460.342 217.686 462.162 217.485 463.989 217.462C466.944 217.462 468.953 218.017 470.014 219.128C471.104 220.35 471.671 221.951 471.595 223.587C471.488 225.849 471.117 228.092 470.49 230.268C469.753 233.146 468.914 236.426 467.973 240.107C467.032 243.788 465.64 248.52 463.795 254.303C462.184 259.141 460.917 264.086 460.004 269.103C459.329 273.186 458.474 277.241 457.441 281.268C456.473 284.851 455.955 288.54 455.898 292.251C455.806 294.853 456.17 297.452 456.973 299.929C457.284 300.829 457.888 301.599 458.688 302.115C459.488 302.631 460.438 302.865 461.386 302.777C464.436 302.636 467.398 301.711 469.986 300.091C473.333 298.168 476.529 295.995 479.549 293.591C482.772 291.051 485.924 288.418 489.004 285.691C492.074 282.97 494.804 280.641 497.17 278.707L497.165 300.522ZM449.128 187.763C449.176 185.838 449.539 183.934 450.202 182.126C450.966 179.944 452.153 177.935 453.694 176.212C455.498 174.229 457.693 172.642 460.141 171.55C463.312 170.187 466.745 169.538 470.195 169.65C472.586 169.638 474.969 169.929 477.286 170.517C479.367 171.037 481.334 171.939 483.086 173.177C484.759 174.403 486.103 176.023 487 177.893C488.017 180.063 488.516 182.439 488.458 184.834C488.46 187.268 488.06 189.686 487.276 191.991C486.486 194.3 485.202 196.41 483.515 198.173C481.67 200.069 479.455 201.564 477.007 202.567C474.022 203.757 470.826 204.329 467.613 204.248C461.305 204.248 456.646 202.748 453.637 199.748C450.628 196.748 449.123 192.753 449.124 187.764" fill="#35837E"/>
<path d="M609.785 323.407C605.924 323.407 602.338 321.733 599.025 318.384C595.329 314.461 592.389 309.89 590.352 304.9C587.692 298.599 585.754 292.016 584.574 285.279C583.157 277.552 582.458 269.711 582.486 261.856C582.486 254.827 583.519 245.443 585.586 233.705C587.653 221.967 588.684 216.1 588.679 216.105C588.679 216.105 590.245 210.246 593.379 198.522C595.801 188.898 598.949 179.47 602.796 170.322C605.805 163.501 609.229 156.87 613.047 150.467C616.415 144.759 620.302 139.375 624.659 134.381C628.305 130.152 632.588 126.517 637.353 123.606C641.4 121.099 646.054 119.744 650.814 119.688C653.672 119.578 656.507 120.234 659.026 121.588C661.13 122.792 662.887 124.52 664.126 126.604C665.4 128.785 666.28 131.174 666.726 133.661C667.228 136.31 667.48 139.001 667.478 141.697C667.458 148.662 666.653 155.603 665.078 162.388C663.42 169.59 661.255 176.666 658.6 183.563C655.876 190.658 652.73 197.771 649.161 204.902C645.592 212.033 641.866 219.11 637.982 226.133C634.115 233.156 630.224 240.071 626.309 246.878C622.394 253.685 618.787 260.339 615.488 266.84C615.05 267.754 614.671 268.694 614.352 269.656C613.96 270.812 613.584 272.058 613.224 273.394C612.864 274.73 612.503 276.156 612.142 277.673C611.789 279.193 611.498 280.673 611.282 282.117V283.637C611.279 285.476 611.477 287.309 611.873 289.105C612.226 290.732 612.714 292.327 613.331 293.874C613.787 295.071 614.404 296.201 615.165 297.232C615.809 298.064 616.416 298.479 616.992 298.479C618.624 298.439 620.239 298.146 621.781 297.612C623.739 296.969 625.649 296.191 627.499 295.283C629.517 294.308 631.589 293.189 633.715 291.925C635.841 290.661 637.895 289.378 639.878 288.077C644.498 285.046 649.338 281.542 654.398 277.566L663.892 300.215C657.323 304.576 650.83 308.456 644.413 311.856C641.613 313.287 638.717 314.701 635.726 316.096C632.735 317.491 629.729 318.735 626.708 319.826C623.815 320.879 620.86 321.749 617.858 322.432C615.211 323.052 612.504 323.378 609.785 323.403V323.407ZM609.885 238.229C613.116 232.449 616.546 225.949 620.176 218.729C623.806 211.509 627.239 204.068 630.476 196.407C633.706 188.751 636.506 181.112 638.876 173.489C641.102 166.564 642.619 159.431 643.404 152.2C643.404 150.104 643.353 148.316 643.251 146.835C643.149 145.354 642.827 144.614 642.284 144.613C640.319 144.613 638.199 145.974 635.922 148.696C633.223 152.099 630.934 155.808 629.102 159.746C626.831 164.389 624.117 171.943 620.959 182.406C617.801 192.869 616.22 198.103 616.217 198.106C616.217 198.106 615.257 202.963 613.331 212.673C611.572 221.101 610.421 229.645 609.886 238.238" fill="#35837E"/>
<path d="M710.046 240.398C721.817 257.948 717.909 277.483 710.529 294.598C708.778 298.58 706.61 302.365 704.061 305.89C701.597 309.322 698.669 312.396 695.361 315.024C692.124 317.589 688.52 319.653 684.67 321.148C680.729 322.666 676.538 323.431 672.314 323.405C666.643 323.571 661.039 322.137 656.144 319.268C651.703 316.548 647.937 312.855 645.13 308.468C642.192 303.849 640.067 298.761 638.845 293.425C637.521 287.863 636.854 282.165 636.857 276.448C636.857 266.993 638.039 258.845 640.403 252.004C642.599 245.458 646.046 239.402 650.553 234.172C655.019 229.076 660.536 225.007 666.724 222.245C673.49 219.265 680.82 217.782 688.213 217.898C694.723 217.85 701.193 218.922 707.339 221.067C710.313 222.125 713.191 223.36 716.106 224.698C742.041 235.192 746.133 237.588 761.757 229.774C769.348 231.097 768.2 235.385 765.864 237.615C746.833 255.783 727.293 245.352 710.933 239.208L710.046 240.398ZM676.502 302.777C678.935 302.777 681.298 301.541 683.593 299.07C686.084 296.295 688.115 293.139 689.61 289.723C691.518 285.352 692.907 280.773 693.747 276.078C694.715 271.392 695.236 266.625 695.304 261.84C695.321 258.762 695.069 255.688 694.552 252.653C694.141 250.108 693.382 247.631 692.296 245.293C691.41 243.368 690.087 241.675 688.433 240.35C686.795 239.112 684.785 238.468 682.733 238.524C679.794 238.524 677.001 239.777 674.353 242.284C671.498 245.071 669.137 248.322 667.369 251.898C665.287 256.013 663.699 260.36 662.641 264.848C661.438 270.098 660.861 275.472 660.922 280.858C660.905 283.71 661.193 286.555 661.782 289.345C662.275 291.792 663.183 294.136 664.468 296.276C665.667 298.225 667.327 299.849 669.303 301.004C671.499 302.234 673.987 302.847 676.503 302.777" fill="#35837E"/>
<path d="M561.655 240.398C573.425 257.948 569.518 277.483 562.137 294.598C560.386 298.58 558.218 302.365 555.67 305.89C553.206 309.322 550.278 312.396 546.97 315.024C543.733 317.589 540.129 319.653 536.279 321.148C532.337 322.666 528.146 323.431 523.923 323.405C518.251 323.571 512.647 322.137 507.752 319.268C503.311 316.548 499.545 312.855 496.739 308.468C493.801 303.849 491.676 298.761 490.454 293.425C489.13 287.863 488.463 282.165 488.466 276.448C488.466 266.993 489.648 258.845 492.012 252.004C494.208 245.459 497.655 239.402 502.161 234.172C506.627 229.076 512.144 225.007 518.332 222.245C525.098 219.265 532.429 217.782 539.822 217.898C546.332 217.85 552.801 218.922 558.948 221.067C561.922 222.125 564.8 223.36 567.715 224.698C593.649 235.192 597.742 237.588 613.366 229.774C620.957 231.097 619.809 235.385 617.473 237.615C598.437 255.783 578.902 245.352 562.536 239.208L561.655 240.398ZM528.11 302.777C530.543 302.777 532.907 301.541 535.202 299.07C537.693 296.295 539.724 293.139 541.219 289.723C543.127 285.352 544.515 280.773 545.355 276.078C546.323 271.392 546.845 266.625 546.913 261.84C546.93 258.762 546.678 255.688 546.161 252.653C545.749 250.108 544.99 247.631 543.904 245.293C543.017 243.367 541.692 241.674 540.036 240.35C538.4 239.113 536.392 238.469 534.342 238.524C531.403 238.524 528.61 239.777 525.961 242.284C523.107 245.071 520.745 248.322 518.977 251.898C516.895 256.013 515.308 260.36 514.25 264.848C513.047 270.098 512.47 275.472 512.531 280.858C512.513 283.71 512.802 286.555 513.391 289.345C513.884 291.792 514.792 294.136 516.077 296.276C517.275 298.226 518.936 299.849 520.912 301.004C523.108 302.235 525.596 302.847 528.112 302.777" fill="#35837E"/>
</g>
<defs>
<clipPath id="clip0">
<rect width="768" height="344" fill="white"/>
</clipPath>
</defs>
</svg>
