<svg width="500" height="265" viewBox="0 0 500 265" fill="none" xmlns="http://www.w3.org/2000/svg">
<g clip-path="url(#clip0)">
<g filter="url(#filter0_d)">
<path d="M111.917 37.1304C40.4145 37.1304 0 92.2367 0 92.2367V204.845H500V80.5566C500 80.5566 449.223 46.1151 385.492 46.1151C321.762 46.1151 310.881 113.8 240.415 113.8C169.948 113.8 183.42 37.1304 111.917 37.1304Z" fill="#45D9E2"/>
</g>
<g filter="url(#filter1_d)">
<path d="M111.917 70.8577C40.4145 70.8577 0 125.964 0 125.964V238.573H500V114.284C500 114.284 449.223 79.8425 385.492 79.8425C321.762 79.8425 310.881 147.527 240.415 147.527C169.948 147.527 183.42 70.8577 111.917 70.8577Z" fill="#E2AD45"/>
</g>
<g filter="url(#filter2_d)">
<path d="M111.917 116.39C40.4145 116.39 0 171.496 0 171.496V270.476H500L500 159.816C500 159.816 449.223 125.374 385.492 125.374C321.762 125.374 310.881 193.059 240.414 193.059C169.948 193.059 183.42 116.39 111.917 116.39Z" fill="#8AE245"/>
</g>
<g filter="url(#filter3_d)">
<path d="M111.917 153.803C40.4145 153.803 0 208.91 0 208.91V265.214H500V197.229C500 197.229 449.223 162.788 385.492 162.788C321.762 162.788 310.881 230.473 240.415 230.473C169.948 230.473 183.42 153.803 111.917 153.803Z" fill="#E24545"/>
</g>
</g>
<defs>
<filter id="filter0_d" x="-20" y="21.1304" width="540" height="207.715" filterUnits="userSpaceOnUse" color-interpolation-filters="sRGB">
<feFlood flood-opacity="0" result="BackgroundImageFix"/>
<feColorMatrix in="SourceAlpha" type="matrix" values="0 0 0 0 0 0 0 0 0 0 0 0 0 0 0 0 0 0 127 0"/>
<feOffset dy="4"/>
<feGaussianBlur stdDeviation="10"/>
<feColorMatrix type="matrix" values="0 0 0 0 0 0 0 0 0 0 0 0 0 0 0 0 0 0 0.5 0"/>
<feBlend mode="normal" in2="BackgroundImageFix" result="effect1_dropShadow"/>
<feBlend mode="normal" in="SourceGraphic" in2="effect1_dropShadow" result="shape"/>
</filter>
<filter id="filter1_d" x="-20" y="54.8577" width="540" height="207.715" filterUnits="userSpaceOnUse" color-interpolation-filters="sRGB">
<feFlood flood-opacity="0" result="BackgroundImageFix"/>
<feColorMatrix in="SourceAlpha" type="matrix" values="0 0 0 0 0 0 0 0 0 0 0 0 0 0 0 0 0 0 127 0"/>
<feOffset dy="4"/>
<feGaussianBlur stdDeviation="10"/>
<feColorMatrix type="matrix" values="0 0 0 0 0 0 0 0 0 0 0 0 0 0 0 0 0 0 0.5 0"/>
<feBlend mode="normal" in2="BackgroundImageFix" result="effect1_dropShadow"/>
<feBlend mode="normal" in="SourceGraphic" in2="effect1_dropShadow" result="shape"/>
</filter>
<filter id="filter2_d" x="-20" y="100.39" width="540" height="194.086" filterUnits="userSpaceOnUse" color-interpolation-filters="sRGB">
<feFlood flood-opacity="0" result="BackgroundImageFix"/>
<feColorMatrix in="SourceAlpha" type="matrix" values="0 0 0 0 0 0 0 0 0 0 0 0 0 0 0 0 0 0 127 0"/>
<feOffset dy="4"/>
<feGaussianBlur stdDeviation="10"/>
<feColorMatrix type="matrix" values="0 0 0 0 0 0 0 0 0 0 0 0 0 0 0 0 0 0 0.5 0"/>
<feBlend mode="normal" in2="BackgroundImageFix" result="effect1_dropShadow"/>
<feBlend mode="normal" in="SourceGraphic" in2="effect1_dropShadow" result="shape"/>
</filter>
<filter id="filter3_d" x="-20" y="137.803" width="540" height="151.411" filterUnits="userSpaceOnUse" color-interpolation-filters="sRGB">
<feFlood flood-opacity="0" result="BackgroundImageFix"/>
<feColorMatrix in="SourceAlpha" type="matrix" values="0 0 0 0 0 0 0 0 0 0 0 0 0 0 0 0 0 0 127 0"/>
<feOffset dy="4"/>
<feGaussianBlur stdDeviation="10"/>
<feColorMatrix type="matrix" values="0 0 0 0 0 0 0 0 0 0 0 0 0 0 0 0 0 0 0.5 0"/>
<feBlend mode="normal" in2="BackgroundImageFix" result="effect1_dropShadow"/>
<feBlend mode="normal" in="SourceGraphic" in2="effect1_dropShadow" result="shape"/>
</filter>
<clipPath id="clip0">
<rect width="500" height="265" fill="white"/>
</clipPath>
</defs>
</svg>
